<svg xmlns="http://www.w3.org/2000/svg" width="62.875" height="74.31" viewBox="0 0 62.875 74.31"><defs><style>.cls-1{fill:#484848;fill-rule:evenodd}</style></defs><path id="_" data-name="" class="cls-1" d="M949.884 1758.25a1.711 1.711 0 0 1 .491-1.23 1.608 1.608 0 0 1 1.206-.51 1.74 1.74 0 0 1 0 3.48 1.608 1.608 0 0 1-1.206-.51 1.711 1.711 0 0 1-.491-1.23zm18.795 0a1.746 1.746 0 0 1 1.741-1.74 1.607 1.607 0 0 1 1.205.51 1.786 1.786 0 0 1 0 2.46 1.607 1.607 0 0 1-1.205.51 1.746 1.746 0 0 1-1.741-1.74zm-37.768 11.29a4.407 4.407 0 0 0-1.339 3.22v19.2a4.574 4.574 0 0 0 4.6 4.59 4.34 4.34 0 0 0 3.237-1.34 4.453 4.453 0 0 0 1.317-3.25v-19.2a4.584 4.584 0 0 0-7.815-3.22zm9.6-.49v29.74a4.881 4.881 0 0 0 4.911 4.91h3.3l.044 10.13a4.576 4.576 0 1 0 9.152 0v-10.13h6.161v10.13a4.6 4.6 0 1 0 9.2 0v-10.13h3.348a4.7 4.7 0 0 0 3.438-1.43 4.745 4.745 0 0 0 1.428-3.48v-29.74h-40.984zm33.795-23.92a.6.6 0 0 0-.223-.9.617.617 0 0 0-.893.27l-3.214 5.89a22.465 22.465 0 0 0-17.947 0l-3.214-5.89a.617.617 0 0 0-.893-.27.594.594 0 0 0-.223.9l3.169 5.84a19.526 19.526 0 0 0-7.678 6.86 17.279 17.279 0 0 0-2.857 9.62h41.294a17.279 17.279 0 0 0-2.857-9.62 19.607 19.607 0 0 0-7.634-6.86zm16.786 24.39a4.462 4.462 0 0 0-3.259-1.31 4.522 4.522 0 0 0-4.554 4.55v19.2a4.414 4.414 0 0 0 1.339 3.25 4.359 4.359 0 0 0 3.215 1.34 4.574 4.574 0 0 0 4.6-4.59v-19.2a4.376 4.376 0 0 0-1.343-3.24z" transform="translate(-929.563 -1744.13)"/></svg>