<svg xmlns="http://www.w3.org/2000/svg" height="75" width="300" viewBox="0 0 300 74.999999"><path d="M186.92 29.19c-6.781 0-12.298 5.576-12.298 12.429 0 6.853 5.517 12.428 12.297 12.428 6.781 0 12.298-5.575 12.298-12.428 0-6.853-5.517-12.429-12.298-12.429zm0 22.286c-5.378 0-9.754-4.422-9.754-9.857 0-5.436 4.376-9.857 9.753-9.857 5.378 0 9.753 4.421 9.753 9.857 0 5.435-4.375 9.857-9.753 9.857z" fill="#fff"/><path d="M186.92 33.954c-4.182 0-7.584 3.438-7.584 7.665 0 4.226 3.402 7.665 7.583 7.665 4.182 0 7.584-3.439 7.584-7.665 0-4.227-3.402-7.665-7.584-7.665zm0 2.571c.365 0 .722.04 1.066.116l-4.86 8.325a5.102 5.102 0 0 1-1.246-3.347c0-2.809 2.26-5.094 5.04-5.094zm0 10.187a4.97 4.97 0 0 1-1.689-.294l5.028-8.61a5.106 5.106 0 0 1 1.7 3.81c0 2.81-2.26 5.094-5.04 5.094z" fill="#fff"/><path d="M210.194 49.684c-2.193-3.83-4.362-6.656-5.066-7.543a92.136 92.136 0 0 0-1.955-9.24c-3.032-11.436-8.203-22.326-15.37-32.367A1.268 1.268 0 0 0 186.77 0a1.27 1.27 0 0 0-1.032.533c-7.167 10.042-12.338 20.932-15.37 32.369a92.144 92.144 0 0 0-1.955 9.24c-.704.886-2.873 3.712-5.066 7.542-3.549 6.197-5.348 11.79-5.348 16.62 0 .71.57 1.286 1.272 1.286 4.456 0 8.973-.446 9.958-.549.93.183 1.86.35 2.79.504l-.574 5.25c-.036.338.061.678.272.944.211.266.518.437.854.474a127.94 127.94 0 0 0 28.357 0c.335-.037.642-.208.853-.474.211-.266.309-.606.272-.945l-.574-5.242a92.508 92.508 0 0 0 2.832-.51c.985.102 5.502.548 9.958.548.703 0 1.272-.575 1.272-1.286 0-4.83-1.8-10.422-5.348-16.62zM186.771 3.51a100.175 100.175 0 0 1 7.687 13.203 18 18 0 0 1-7.688 1.727c-2.661 0-5.295-.595-7.687-1.727a100.173 100.173 0 0 1 7.688-13.203zm-19.03 43.937a82.53 82.53 0 0 0 .122 17.143 107.3 107.3 0 0 1-7.27.416c.478-6.474 4.361-13.37 7.147-17.56zm31.643 24.345c-8.39.85-16.878.85-25.268 0l.422-3.866a90.302 90.302 0 0 0 24.423.005l.423 3.861zm3.727-7.136a87.964 87.964 0 0 1-32.68 0c-1.191-10.145-.386-20.598 2.395-31.089a93.866 93.866 0 0 1 5.17-14.529 20.53 20.53 0 0 0 8.774 1.973c3.038 0 6.045-.68 8.775-1.973a93.856 93.856 0 0 1 5.17 14.53c2.782 10.49 3.587 20.943 2.396 31.088zm2.568-.066a82.541 82.541 0 0 0 .122-17.148c2.787 4.186 6.67 11.08 7.148 17.564a106.857 106.857 0 0 1-7.27-.416z" fill="#fff"/><g fill="#fff"><path d="M69.656 17.836h-16.32v-1.862c0-3.294-2.714-5.974-6.05-5.974H27.714c-3.336 0-6.05 2.68-6.05 5.974v1.862H5.343C2.398 17.836 0 20.202 0 23.112v36.612C0 62.633 2.398 65 5.344 65h64.312C72.602 65 75 62.633 75 59.724V23.112c0-2.91-2.398-5.276-5.344-5.276zM24.65 15.974c0-1.668 1.374-3.024 3.063-3.024h19.572c1.689 0 3.063 1.356 3.063 3.024v1.861H24.65v-1.861zm47.361 43.75c0 1.282-1.057 2.326-2.356 2.326H5.344c-1.299 0-2.356-1.044-2.356-2.326V44.962l2.552 2.5c.28.274.658.428 1.052.428H30.03v5.033c0 .815.669 1.475 1.494 1.475h11.952c.825 0 1.494-.66 1.494-1.475V47.89h12.251c.825 0 1.494-.66 1.494-1.475 0-.815-.669-1.475-1.494-1.475H7.208l-4.22-4.134V23.112c0-1.283 1.057-2.326 2.356-2.326h64.311c1.3 0 2.357 1.043 2.357 2.326v17.55l-4.673 4.722a1.462 1.462 0 0 0 .025 2.086 1.503 1.503 0 0 0 2.113-.025l2.535-2.561v14.84zm-38.994-8.276V47.89h8.964v3.558h-8.964z"/><path d="M63.048 44.94h-.897c-.825 0-1.494.66-1.494 1.475 0 .814.67 1.475 1.494 1.475h.897c.825 0 1.494-.66 1.494-1.475 0-.815-.67-1.475-1.494-1.475z"/></g><g fill="#fff"><path d="M99.24 52.5H88.982c-.75 0-1.358.604-1.358 1.35 0 .744.608 1.348 1.358 1.348H99.24c.75 0 1.36-.604 1.36-1.349s-.61-1.349-1.36-1.349zm0 6.267H88.982c-.75 0-1.358.604-1.358 1.35 0 .744.608 1.348 1.358 1.348H99.24c.75 0 1.36-.604 1.36-1.349s-.61-1.349-1.36-1.349zm0 6.267H88.982c-.75 0-1.358.604-1.358 1.35 0 .744.608 1.348 1.358 1.348H99.24c.75 0 1.36-.604 1.36-1.349s-.61-1.349-1.36-1.349zM117.864 52.5h-10.256c-.75 0-1.359.604-1.359 1.35 0 .744.608 1.348 1.359 1.348h10.256c.75 0 1.359-.604 1.359-1.349s-.609-1.349-1.36-1.349zm0 6.267h-10.256c-.75 0-1.359.604-1.359 1.35 0 .744.608 1.348 1.359 1.348h10.256c.75 0 1.359-.604 1.359-1.349s-.609-1.349-1.36-1.349zm0 6.267h-10.256c-.75 0-1.359.604-1.359 1.35 0 .744.608 1.348 1.359 1.348h10.256c.75 0 1.359-.604 1.359-1.349s-.609-1.349-1.36-1.349zM136.488 52.5h-10.256c-.75 0-1.359.604-1.359 1.35 0 .744.609 1.348 1.36 1.348h10.255c.75 0 1.359-.604 1.359-1.349s-.609-1.349-1.359-1.349zm0 6.267h-10.256c-.75 0-1.359.604-1.359 1.35 0 .744.609 1.348 1.36 1.348h10.255c.75 0 1.359-.604 1.359-1.349s-.609-1.349-1.359-1.349zm0 6.267h-10.256c-.75 0-1.359.604-1.359 1.35 0 .744.609 1.348 1.36 1.348h10.255c.75 0 1.359-.604 1.359-1.349s-.609-1.349-1.359-1.349zm3.176-63.522H83.258c-2.411 0-4.373 1.947-4.373 4.341s1.962 4.341 4.373 4.341h2.87a1.65 1.65 0 0 1 1.656 1.644v1.757c0 .745.608 1.35 1.359 1.35.75 0 1.358-.605 1.358-1.35v-1.757c0-2.394-1.961-4.341-4.372-4.341h-2.871a1.651 1.651 0 0 1-1.655-1.644 1.65 1.65 0 0 1 1.655-1.643h56.406c.75 0 1.359-.604 1.359-1.35 0-.744-.609-1.348-1.36-1.348z"/><path d="M102.682 7.497h-6.22c-2.41 0-4.372 1.947-4.372 4.34v1.758c0 .745.608 1.35 1.358 1.35.75 0 1.36-.605 1.36-1.35v-1.757a1.65 1.65 0 0 1 1.654-1.644h6.22a1.65 1.65 0 0 1 1.655 1.644v1.757c0 .745.609 1.35 1.359 1.35s1.359-.605 1.359-1.35v-1.757c0-2.394-1.962-4.341-4.373-4.341zm43.776 0h-33.251c-2.411 0-4.372 1.947-4.372 4.34v1.758c0 .745.608 1.35 1.358 1.35.75 0 1.36-.605 1.36-1.35v-1.757a1.65 1.65 0 0 1 1.654-1.644h33.25c.751 0 1.36-.603 1.36-1.349 0-.744-.609-1.348-1.36-1.348z"/><path d="M143.013 12.911h-25.835c-.75 0-1.359.604-1.359 1.35 0 .744.609 1.348 1.36 1.348h25.834c.75 0 1.359-.604 1.359-1.349s-.609-1.349-1.36-1.349zm-6.315 7.125H120.91c-.75 0-1.359.604-1.359 1.349s.608 1.349 1.359 1.349h15.788c.75 0 1.358-.604 1.358-1.35 0-.744-.608-1.348-1.358-1.348zm-11.482 6.398h-8.325c-.75 0-1.359.604-1.359 1.35 0 .744.609 1.348 1.359 1.348h8.325c.75 0 1.358-.604 1.358-1.349s-.608-1.349-1.358-1.349z"/><path d="M148.877 71.302h-4.27v-23.72c0-.745-.61-1.349-1.36-1.349h-5.21v-12.05c0-.454-.229-.876-.61-1.126a1.368 1.368 0 0 0-1.281-.116l-13.497 5.715c-.501.212-.826.7-.826 1.24v6.337h-7.493l-2.946-28.72a1.355 1.355 0 0 0-1.352-1.213h-5.118c-.697 0-1.281.524-1.352 1.213l-2.946 28.72h-2.822l-2.947-28.72a1.355 1.355 0 0 0-1.351-1.213h-5.118c-.697 0-1.281.524-1.352 1.213l-2.946 28.72h-1.856c-.75 0-1.359.604-1.359 1.35v23.719h-4.27c-.75 0-1.36.604-1.36 1.349S75.846 74 76.596 74h72.282c.75 0 1.359-.604 1.359-1.349s-.609-1.35-1.359-1.35zm-24.336-30.514l10.779-4.564v10.01h-10.78v-5.446zm-18.4-21.79h2.664l.414 4.035h-3.491l.414-4.035zm-.69 6.733h4.044l2.103 20.502h-8.25l2.103-20.502zm-15.846-6.733h2.664l.414 4.035H89.19l.414-4.035zm-.69 6.733h4.044l2.103 20.502h-8.25l2.103-20.502zm52.974 45.57H83.583v-22.37h58.306V71.3z"/></g><path d="M299.999 30.164c0-13.054-10.03-23.884-23.04-25.14a3.888 3.888 0 0 0-3.733-2.772h-21.452a3.888 3.888 0 0 0-3.733 2.772C235.031 6.282 225 17.112 225 30.164v20.172c0 4.283 3.527 7.768 7.861 7.768h6.12c1.821 0 3.303-1.464 3.303-3.264V33.405c0-1.8-1.482-3.264-3.303-3.264h-6.12a7.88 7.88 0 0 0-5.106 1.87v-1.847c0-11.63 8.923-21.282 20.507-22.426a3.894 3.894 0 0 0 3.512 2.202h21.452c1.55 0 2.887-.903 3.512-2.202 11.583 1.143 20.506 10.795 20.506 22.426v1.845a7.88 7.88 0 0 0-5.105-1.868h-6.12c-1.821 0-3.303 1.464-3.303 3.264V54.84c0 1.8 1.482 3.264 3.303 3.264h6.12a7.88 7.88 0 0 0 5.106-1.87v.991c0 5.144-4.235 9.329-9.44 9.329h-16.692a5.145 5.145 0 0 0-4.957-3.724h-5.025c-2.837 0-5.146 2.28-5.146 5.085 0 2.804 2.309 5.085 5.146 5.085h5.025a5.145 5.145 0 0 0 4.957-3.724h16.693c6.724 0 12.194-5.406 12.194-12.05V30.163zm-60.47 3.24V54.84a.545.545 0 0 1-.548.541h-.548V32.863h.548c.302 0 .548.243.548.542zm-6.668-.54h2.817v22.518h-2.817c-2.816 0-5.106-2.264-5.106-5.046V37.909c0-2.782 2.29-5.046 5.106-5.046zm40.365-25.647h-21.452a1.13 1.13 0 0 1-1.135-1.121 1.13 1.13 0 0 1 1.135-1.122h21.452a1.13 1.13 0 0 1 1.135 1.122 1.13 1.13 0 0 1-1.135 1.121zm12.245 47.623V33.405c0-.299.246-.542.548-.542h.548v22.519h-.548a.545.545 0 0 1-.548-.542zm-19.315 15.438h-5.025c-1.318 0-2.39-1.06-2.39-2.363s1.072-2.363 2.39-2.363h5.025c1.318 0 2.391 1.06 2.391 2.363s-1.073 2.363-2.391 2.363zm25.983-14.896h-2.817V32.863h2.817c2.815 0 5.106 2.264 5.106 5.046v12.427c0 2.782-2.29 5.046-5.106 5.046z" fill="#fff"/></svg>