<svg xmlns="http://www.w3.org/2000/svg" width="62.187" height="74.28" viewBox="0 0 62.187 74.28"><defs><style>.cls-1{fill:#474747;fill-rule:evenodd}</style></defs><path id="_" data-name="" class="cls-1" d="M784.706 1792.04a16.968 16.968 0 0 1-3.081-9.95 15.9 15.9 0 0 1 2.9-9.24 28.728 28.728 0 0 1 5.089-5.27 23.089 23.089 0 0 0-4.642-4.46 16.292 16.292 0 0 0-9.509-2.91 25.286 25.286 0 0 0-7.724 1.52 22.432 22.432 0 0 1-6.384 1.52 28.95 28.95 0 0 1-6.16-1.34 29.828 29.828 0 0 0-7.9-1.34 15.4 15.4 0 0 0-12.679 6.43q-5.044 6.525-5.044 16.7 0 10.8 6.562 22.45 6.652 11.565 13.438 11.56a16.14 16.14 0 0 0 5.893-1.51 17.05 17.05 0 0 1 6.339-1.48 19.8 19.8 0 0 1 6.741 1.43 20.7 20.7 0 0 0 6.25 1.43q5.714 0 11.473-8.75a43.059 43.059 0 0 0 5.491-11.16 13.548 13.548 0 0 1-7.053-5.63zm-9.755-47.18a5.559 5.559 0 0 1-.022-.45 4.26 4.26 0 0 1-.112-.49 4.323 4.323 0 0 0-.111-.49q-7.859 1.83-11.161 6.61a20.32 20.32 0 0 0-3.482 11.47 24.859 24.859 0 0 0 4.643-.76 12.768 12.768 0 0 0 4.821-3.21 18.391 18.391 0 0 0 4.152-6.16 17.083 17.083 0 0 0 1.3-6.08c-.005-.12-.013-.26-.028-.44z" transform="translate(-729.563 -1743.44)"/></svg>