<svg xmlns="http://www.w3.org/2000/svg" viewBox="0 0 295.239 295.239"><path fill="#fab31a" d="M252.381 52.382L204.762.001H42.857v295.238h209.524z"/><path fill="#fff" d="M195.238 61.906h57.143v-9.524h-47.619V.001h-9.524zm76.191 38.095H108.081l-35.714 23.81 35.714 23.81h163.348c13.129 0 23.81-10.681 23.81-23.81s-10.682-23.81-23.81-23.81zm-166.667 13.657v20.3l-15.224-10.147 15.224-10.153zm157.143 24.438H114.286v-9.524h133.333v-9.524H114.286v-9.524h147.619v28.572zm9.524 0v-28.571c7.876 0 14.286 6.41 14.286 14.286 0 7.876-6.41 14.285-14.286 14.285zM0 247.62h228.571v-66.667H0v66.667zm9.524-57.143h9.524v14.286h9.524v-14.286h9.524v14.286h9.524v-14.286h9.524v23.81h9.524v-23.81h9.524v14.286h9.524v-14.286h9.524v14.286h9.524v-14.286h9.524v23.81h9.524v-23.81h9.524v14.286h9.524v-14.286h9.524v14.286h9.524v-14.286h9.524v23.81h9.524v-23.81h38.095v47.62H9.524v-47.62z"/><path d="M204.762 200.001c-7.876 0-14.286 6.41-14.286 14.286 0 7.876 6.41 14.286 14.286 14.286 7.876 0 14.286-6.41 14.286-14.286 0-7.876-6.41-14.286-14.286-14.286zm0 19.048a4.766 4.766 0 0 1-4.762-4.762 4.766 4.766 0 0 1 4.762-4.762 4.766 4.766 0 0 1 4.762 4.762 4.767 4.767 0 0 1-4.762 4.762zM66.667 23.811h114.286v9.524H66.667zm0 23.809h114.286v9.524H66.667zm0 23.81h114.286v9.524H66.667z" fill="#fff"/></svg>