<?xml version="1.0" encoding="UTF-8" standalone="no"?>
<!-- Generator: Adobe Illustrator 19.0.0, SVG Export Plug-In . SVG Version: 6.00 Build 0)  -->

<svg
   xmlns:dc="http://purl.org/dc/elements/1.1/"
   xmlns:cc="http://creativecommons.org/ns#"
   xmlns:rdf="http://www.w3.org/1999/02/22-rdf-syntax-ns#"
   xmlns:svg="http://www.w3.org/2000/svg"
   xmlns="http://www.w3.org/2000/svg"
   xmlns:sodipodi="http://sodipodi.sourceforge.net/DTD/sodipodi-0.dtd"
   xmlns:inkscape="http://www.inkscape.org/namespaces/inkscape"
   version="1.1"
   id="Layer_1"
   x="0px"
   y="0px"
   viewBox="0 0 295.239 295.239"
   style="enable-background:new 0 0 295.239 295.239;"
   xml:space="preserve"
   inkscape:version="0.91 r13725"
   sodipodi:docname="design.svg"><metadata
     id="metadata57"><rdf:RDF><cc:Work
         rdf:about=""><dc:format>image/svg+xml</dc:format><dc:type
           rdf:resource="http://purl.org/dc/dcmitype/StillImage" /></cc:Work></rdf:RDF></metadata><defs
     id="defs55" /><sodipodi:namedview
     pagecolor="#ffffff"
     bordercolor="#666666"
     borderopacity="1"
     objecttolerance="10"
     gridtolerance="10"
     guidetolerance="10"
     inkscape:pageopacity="0"
     inkscape:pageshadow="2"
     inkscape:window-width="1920"
     inkscape:window-height="1017"
     id="namedview53"
     showgrid="false"
     inkscape:zoom="0.79935235"
     inkscape:cx="147.61951"
     inkscape:cy="147.61951"
     inkscape:window-x="-8"
     inkscape:window-y="-8"
     inkscape:window-maximized="1"
     inkscape:current-layer="Layer_1" /><polygon
     style="fill:#fab31a;fill-opacity:1"
     points="252.381,52.382 204.762,0.001 42.857,0.001 42.857,295.239 252.381,295.239 "
     id="polygon7" /><polygon
     style="fill:#ffffff;fill-opacity:1"
     points="195.238,61.906 252.381,61.906 252.381,52.382 204.762,52.382 204.762,0.001 195.238,0.001 "
     id="polygon9" /><path
     style="fill:#ffffff;fill-opacity:1"
     d="m 271.429,100.001 -9.524,0 -153.824,0 -35.714,23.81 35.714,23.81 153.824,0 9.524,0 c 13.129,0 23.81,-10.681 23.81,-23.81 0,-13.129 -10.682,-23.81 -23.81,-23.81 z m -166.667,13.657 0,20.3 -15.224,-10.147 15.224,-10.153 z m 157.143,24.438 -147.619,0 0,-9.524 133.333,0 0,-9.524 -133.333,0 0,-9.524 147.619,0 0,28.572 z m 9.524,0 0,-28.571 c 7.876,0 14.286,6.41 14.286,14.286 0,7.876 -6.41,14.285 -14.286,14.285 z"
     id="path11"
     inkscape:connector-curvature="0" /><path
     style="fill:#ffffff;fill-opacity:1"
     d="m 0,247.62 228.571,0 0,-66.667 -228.571,0 0,66.667 z m 9.524,-57.143 9.524,0 0,14.286 9.524,0 0,-14.286 9.524,0 0,14.286 9.524,0 0,-14.286 9.524,0 0,23.81 9.524,0 0,-23.81 9.524,0 0,14.286 9.524,0 0,-14.286 9.524,0 0,14.286 9.524,0 0,-14.286 9.524,0 0,23.81 9.524,0 0,-23.81 9.524,0 0,14.286 9.524,0 0,-14.286 9.524,0 0,14.286 9.524,0 0,-14.286 9.524,0 0,23.81 9.524,0 0,-23.81 38.095,0 0,23.81 0,23.81 -209.527,0 0,-47.62 z"
     id="path13"
     inkscape:connector-curvature="0" /><path
     style="fill:#ffffff;fill-opacity:1"
     d="m 204.762,200.001 c -7.876,0 -14.286,6.41 -14.286,14.286 0,7.876 6.41,14.286 14.286,14.286 7.876,0 14.286,-6.41 14.286,-14.286 0,-7.876 -6.41,-14.286 -14.286,-14.286 z m 0,19.048 c -2.624,0 -4.762,-2.133 -4.762,-4.762 0,-2.629 2.138,-4.762 4.762,-4.762 2.624,0 4.762,2.133 4.762,4.762 0,2.628 -2.138,4.762 -4.762,4.762 z"
     id="path15"
     inkscape:connector-curvature="0" /><rect
     x="66.667"
     y="23.811001"
     style="fill:#ffffff;fill-opacity:1"
     width="114.286"
     height="9.5240002"
     id="rect17" /><rect
     x="66.667"
     y="47.619999"
     style="fill:#ffffff;fill-opacity:1"
     width="114.286"
     height="9.5240002"
     id="rect19" /><rect
     x="66.667"
     y="71.43"
     style="fill:#ffffff;fill-opacity:1"
     width="114.286"
     height="9.5240002"
     id="rect21" /><g
     id="g23" /><g
     id="g25" /><g
     id="g27" /><g
     id="g29" /><g
     id="g31" /><g
     id="g33" /><g
     id="g35" /><g
     id="g37" /><g
     id="g39" /><g
     id="g41" /><g
     id="g43" /><g
     id="g45" /><g
     id="g47" /><g
     id="g49" /><g
     id="g51" /></svg>