<?xml version="1.0" encoding="UTF-8" standalone="no"?>
<svg
   xmlns:dc="http://purl.org/dc/elements/1.1/"
   xmlns:cc="http://creativecommons.org/ns#"
   xmlns:rdf="http://www.w3.org/1999/02/22-rdf-syntax-ns#"
   xmlns:svg="http://www.w3.org/2000/svg"
   xmlns="http://www.w3.org/2000/svg"
   id="svg2"
   enable-background="new 0 0 437.501 437.501"
   viewBox="0 0 464 116"
   version="1.1"
   width="464"
   height="116">
  <metadata
     id="metadata16">
    <rdf:RDF>
      <cc:Work
         rdf:about="">
        <dc:format>image/svg+xml</dc:format>
        <dc:type
           rdf:resource="http://purl.org/dc/dcmitype/StillImage" />
        <dc:title></dc:title>
      </cc:Work>
    </rdf:RDF>
  </metadata>
  <defs
     id="defs14" />
  <path
     style="fill:#d389d7;fill-opacity:1"
     d="m 289.10199,45.147447 c -10.48756,0 -19.01962,8.623239 -19.01962,19.222871 0,10.599616 8.53206,19.222855 19.01962,19.222855 10.48754,0 19.01962,-8.623239 19.01962,-19.222855 0,-10.599632 -8.53208,-19.222871 -19.01962,-19.222871 z m 0,34.468596 c -8.31774,0 -15.08453,-6.839097 -15.08453,-15.245725 0,-8.406597 6.76679,-15.245726 15.08453,-15.245726 8.31771,0 15.08452,6.839129 15.08452,15.245726 0,8.406628 -6.76681,15.245725 -15.08452,15.245725 z"
     id="path6" />
  <path
     style="fill:#d389d7;fill-opacity:1"
     d="m 289.10199,52.515242 c -6.46773,0 -11.72973,5.318259 -11.72973,11.855076 0,6.53711 5.262,11.855324 11.72973,11.855324 6.4677,0 11.72998,-5.318214 11.72998,-11.855324 0,-6.536817 -5.26202,-11.855076 -11.72998,-11.855076 z m 0,3.977145 c 0.56586,0 1.11756,0.06279 1.64958,0.179274 l -7.51813,12.875087 c -1.19783,-1.385627 -1.92608,-3.196016 -1.92608,-5.176121 0,-4.344092 3.49671,-7.878194 7.79463,-7.878194 z m 0,15.75611 c -0.91556,0 -1.79389,-0.161751 -2.61082,-0.456035 l 7.77548,-13.315748 c 1.61158,1.444509 2.63025,3.550543 2.63025,5.893604 0,4.344107 -3.49674,7.878179 -7.79491,7.878179 z"
     id="path8" />
  <path
     style="fill:#d389d7;fill-opacity:1"
     d="m 325.10073,76.845035 c -3.39204,-5.924367 -6.7471,-10.295232 -7.83685,-11.667079 -0.75081,-4.752968 -1.75768,-9.519702 -3.02243,-14.289622 C 309.55163,33.199571 301.55315,16.355876 290.4685,0.825394 290.09835,0.307029 289.50468,0 288.87243,0 c -0.63224,0 -1.22592,0.307029 -1.59554,0.825131 -11.08517,15.530451 -19.08364,32.374193 -23.77349,50.062955 -1.26474,4.770168 -2.27159,9.536902 -3.0224,14.290133 -1.09029,1.37211 -4.44481,5.742449 -7.8366,11.666553 -5.48841,9.585189 -8.27107,18.23387 -8.27107,25.706138 0,1.0982 0.88069,1.98858 1.96755,1.98858 6.89219,0 13.87829,-0.68938 15.40171,-0.84898 1.43683,0.28235 2.87551,0.54166 4.31521,0.77895 l -0.88724,8.1187 c -0.0571,0.52417 0.094,1.04996 0.4203,1.46173 0.32633,0.41147 0.80118,0.67532 1.31982,0.7331 7.27546,0.81161 14.60259,1.21701 21.92975,1.21701 7.32689,0 14.65379,-0.40566 21.92948,-1.21701 0.5189,-0.0579 0.99348,-0.32163 1.31985,-0.73337 0.32634,-0.41177 0.47717,-0.93754 0.42001,-1.46174 l -0.88698,-8.10753 c 1.46147,-0.24021 2.92167,-0.50324 4.38028,-0.78984 1.52341,0.15963 8.50953,0.84898 15.40169,0.84898 1.08688,0 1.96755,-0.89038 1.96755,-1.98858 -7.8e-4,-7.472005 -2.7834,-16.120687 -8.27158,-25.705875 z M 288.87243,5.4288 c 4.53245,6.586681 8.50034,13.406151 11.88977,20.420501 -3.69953,1.75126 -7.77392,2.671325 -11.89108,2.671325 -4.11664,0 -8.18999,-0.919803 -11.88898,-2.670521 3.38971,-7.014613 7.35759,-13.834624 11.89029,-20.421305 z m -29.43422,67.955337 c -0.85602,8.930252 -0.79307,17.791074 0.19033,26.514522 -2.42584,0.219561 -6.7652,0.557881 -11.24465,0.643491 0.73929,-10.013353 6.74503,-20.677944 11.05421,-27.158013 z m 48.94259,37.654253 c -12.97664,1.31326 -26.10543,1.31326 -39.08205,0 l 0.65374,-5.97977 c 6.29274,0.85854 12.60622,1.28808 18.92021,1.28808 6.29196,0 12.58389,-0.42664 18.85485,-1.27931 l 0.65325,5.971 z m 5.76412,-11.03739 c -16.77714,3.15734 -33.76862,3.15707 -50.54524,0 -1.84189,-15.690081 -0.59707,-31.858486 3.7045,-48.083359 2.03234,-7.66528 4.70427,-15.169367 7.99638,-22.471938 4.2234,2.000768 8.8731,3.05179 13.57056,3.05179 4.69825,0 9.34873,-1.0513 13.5724,-3.052579 3.29236,7.302834 5.96429,14.807153 7.99664,22.472727 4.3021,16.224873 5.5469,32.393278 3.70476,48.083359 z m 3.9713,-0.102388 c 0.98351,-8.726107 1.04647,-17.589312 0.18976,-26.521977 4.30943,6.475321 10.31676,17.137794 11.05551,27.165465 -4.47684,-0.0852 -8.81827,-0.42392 -11.24519,-0.643488 z"
     id="path10" />
  <g
     id="g4185"
     transform="matrix(0.22656249,0,0,0.22368011,0,0.738007)"
     style="fill:#4ba5f0;fill-opacity:1">
    <g
       id="g4137"
       style="fill:#4ba5f0;fill-opacity:1">
      <g
         id="g4139"
         style="fill:#4ba5f0;fill-opacity:1">
        <path
           id="path4141"
           d="m 475.515,120.027 -111.403,0 0,-12.873 c 0,-22.777 -18.53,-41.307 -41.307,-41.307 l -133.61,0 c -22.777,0 -41.307,18.53 -41.307,41.307 l 0,12.873 -111.403,0 C 16.367,120.027 0,136.393 0,156.511 l 0,253.156 c 0,20.118 16.367,36.485 36.485,36.485 l 439.03,0 c 20.118,0 36.485,-16.367 36.485,-36.485 l 0,-253.156 c 0,-20.118 -16.368,-36.484 -36.485,-36.484 z M 168.287,107.153 c 0,-11.529 9.379,-20.908 20.908,-20.908 l 133.61,0 c 11.529,0 20.908,9.379 20.908,20.908 l 0,12.873 -175.426,0 0,-12.873 z m 323.315,302.515 c 0,8.87 -7.216,16.086 -16.086,16.086 l -439.031,0 c -8.87,0 -16.086,-7.216 -16.086,-16.086 l 0,-102.073 17.42,17.287 c 1.91,1.896 4.493,2.96 7.184,2.96 l 160.001,0 0,34.802 c 0,5.633 4.566,10.199 10.199,10.199 l 81.594,0 c 5.632,0 10.199,-4.566 10.199,-10.199 l 0,-34.802 83.633,0 c 5.632,0 10.199,-4.566 10.199,-10.199 0,-5.633 -4.567,-10.199 -10.199,-10.199 l -341.425,0 -28.806,-28.585 0,-122.348 c 0,-8.87 7.217,-16.086 16.086,-16.086 l 439.03,0 c 8.87,0 16.086,7.216 16.086,16.086 l 0,121.355 -31.898,32.648 c -3.937,4.029 -3.861,10.486 0.167,14.423 1.984,1.938 4.556,2.904 7.126,2.904 2.651,0 5.297,-1.026 7.296,-3.072 l 17.31,-17.714 0,102.613 z m -266.2,-57.224 0,-24.603 61.195,0 0,24.603 -61.195,0 z"
           style="fill:#4ba5f0;fill-opacity:1" />
      </g>
    </g>
    <g
       id="g4143"
       style="fill:#4ba5f0;fill-opacity:1">
      <g
         id="g4145"
         style="fill:#4ba5f0;fill-opacity:1">
        <path
           id="path4147"
           d="m 430.406,307.443 -6.12,0 c -5.632,0 -10.199,4.566 -10.199,10.199 0,5.633 4.567,10.199 10.199,10.199 l 6.12,0 c 5.632,0 10.199,-4.566 10.199,-10.199 10e-4,-5.633 -4.567,-10.199 -10.199,-10.199 z"
           style="fill:#4ba5f0;fill-opacity:1" />
      </g>
    </g>
    <g
       id="g4149"
       style="fill:#4ba5f0;fill-opacity:1" />
    <g
       id="g4151"
       style="fill:#4ba5f0;fill-opacity:1" />
    <g
       id="g4153"
       style="fill:#4ba5f0;fill-opacity:1" />
    <g
       id="g4155"
       style="fill:#4ba5f0;fill-opacity:1" />
    <g
       id="g4157"
       style="fill:#4ba5f0;fill-opacity:1" />
    <g
       id="g4159"
       style="fill:#4ba5f0;fill-opacity:1" />
    <g
       id="g4161"
       style="fill:#4ba5f0;fill-opacity:1" />
    <g
       id="g4163"
       style="fill:#4ba5f0;fill-opacity:1" />
    <g
       id="g4165"
       style="fill:#4ba5f0;fill-opacity:1" />
    <g
       id="g4167"
       style="fill:#4ba5f0;fill-opacity:1" />
    <g
       id="g4169"
       style="fill:#4ba5f0;fill-opacity:1" />
    <g
       id="g4171"
       style="fill:#4ba5f0;fill-opacity:1" />
    <g
       id="g4173"
       style="fill:#4ba5f0;fill-opacity:1" />
    <g
       id="g4175"
       style="fill:#4ba5f0;fill-opacity:1" />
    <g
       id="g4177"
       style="fill:#4ba5f0;fill-opacity:1" />
  </g>
  <g
     id="g4341"
     transform="matrix(0.22656251,0,0,0.22492763,116.36468,0.814258)"
     style="fill:#21ae78;fill-opacity:1">
    <g
       id="g4209"
       style="fill:#21ae78;fill-opacity:1">
      <g
         id="g4211"
         style="fill:#21ae78;fill-opacity:1">
        <path
           id="path4213"
           d="m 163.865,357.388 -70.014,0 c -5.123,0 -9.276,4.153 -9.276,9.276 0,5.123 4.153,9.276 9.276,9.276 l 70.013,0 c 5.123,0 9.276,-4.153 9.276,-9.276 0,-5.123 -4.152,-9.276 -9.275,-9.276 z"
           style="fill:#21ae78;fill-opacity:1" />
      </g>
    </g>
    <g
       id="g4215"
       style="fill:#21ae78;fill-opacity:1">
      <g
         id="g4217"
         style="fill:#21ae78;fill-opacity:1">
        <path
           id="path4219"
           d="m 163.865,400.481 -70.014,0 c -5.123,0 -9.276,4.153 -9.276,9.276 0,5.123 4.153,9.276 9.276,9.276 l 70.013,0 c 5.123,0 9.276,-4.153 9.276,-9.276 0,-5.123 -4.152,-9.276 -9.275,-9.276 z"
           style="fill:#21ae78;fill-opacity:1" />
      </g>
    </g>
    <g
       id="g4221"
       style="fill:#21ae78;fill-opacity:1">
      <g
         id="g4223"
         style="fill:#21ae78;fill-opacity:1">
        <path
           id="path4225"
           d="m 163.865,443.574 -70.014,0 c -5.123,0 -9.276,4.153 -9.276,9.276 0,5.123 4.153,9.276 9.276,9.276 l 70.013,0 c 5.123,0 9.276,-4.153 9.276,-9.276 0,-5.123 -4.152,-9.276 -9.275,-9.276 z"
           style="fill:#21ae78;fill-opacity:1" />
      </g>
    </g>
    <g
       id="g4227"
       style="fill:#21ae78;fill-opacity:1">
      <g
         id="g4229"
         style="fill:#21ae78;fill-opacity:1">
        <path
           id="path4231"
           d="m 291.007,357.388 -70.014,0 c -5.123,0 -9.276,4.153 -9.276,9.276 0,5.123 4.153,9.276 9.276,9.276 l 70.014,0 c 5.123,0 9.276,-4.153 9.276,-9.276 0,-5.123 -4.153,-9.276 -9.276,-9.276 z"
           style="fill:#21ae78;fill-opacity:1" />
      </g>
    </g>
    <g
       id="g4233"
       style="fill:#21ae78;fill-opacity:1">
      <g
         id="g4235"
         style="fill:#21ae78;fill-opacity:1">
        <path
           id="path4237"
           d="m 291.007,400.481 -70.014,0 c -5.123,0 -9.276,4.153 -9.276,9.276 0,5.123 4.153,9.276 9.276,9.276 l 70.014,0 c 5.123,0 9.276,-4.153 9.276,-9.276 0,-5.123 -4.153,-9.276 -9.276,-9.276 z"
           style="fill:#21ae78;fill-opacity:1" />
      </g>
    </g>
    <g
       id="g4239"
       style="fill:#21ae78;fill-opacity:1">
      <g
         id="g4241"
         style="fill:#21ae78;fill-opacity:1">
        <path
           id="path4243"
           d="m 291.007,443.574 -70.014,0 c -5.123,0 -9.276,4.153 -9.276,9.276 0,5.123 4.153,9.276 9.276,9.276 l 70.014,0 c 5.123,0 9.276,-4.153 9.276,-9.276 0,-5.123 -4.153,-9.276 -9.276,-9.276 z"
           style="fill:#21ae78;fill-opacity:1" />
      </g>
    </g>
    <g
       id="g4245"
       style="fill:#21ae78;fill-opacity:1">
      <g
         id="g4247"
         style="fill:#21ae78;fill-opacity:1">
        <path
           id="path4249"
           d="m 418.149,357.388 -70.013,0 c -5.123,0 -9.276,4.153 -9.276,9.276 0,5.123 4.153,9.276 9.276,9.276 l 70.013,0 c 5.123,0 9.276,-4.153 9.276,-9.276 -0.001,-5.123 -4.154,-9.276 -9.276,-9.276 z"
           style="fill:#21ae78;fill-opacity:1" />
      </g>
    </g>
    <g
       id="g4251"
       style="fill:#21ae78;fill-opacity:1">
      <g
         id="g4253"
         style="fill:#21ae78;fill-opacity:1">
        <path
           id="path4255"
           d="m 418.149,400.481 -70.013,0 c -5.123,0 -9.276,4.153 -9.276,9.276 0,5.123 4.153,9.276 9.276,9.276 l 70.013,0 c 5.123,0 9.276,-4.153 9.276,-9.276 -0.001,-5.123 -4.154,-9.276 -9.276,-9.276 z"
           style="fill:#21ae78;fill-opacity:1" />
      </g>
    </g>
    <g
       id="g4257"
       style="fill:#21ae78;fill-opacity:1">
      <g
         id="g4259"
         style="fill:#21ae78;fill-opacity:1">
        <path
           id="path4261"
           d="m 418.149,443.574 -70.013,0 c -5.123,0 -9.276,4.153 -9.276,9.276 0,5.123 4.153,9.276 9.276,9.276 l 70.013,0 c 5.123,0 9.276,-4.153 9.276,-9.276 -0.001,-5.123 -4.154,-9.276 -9.276,-9.276 z"
           style="fill:#21ae78;fill-opacity:1" />
      </g>
    </g>
    <g
       id="g4263"
       style="fill:#21ae78;fill-opacity:1">
      <g
         id="g4265"
         style="fill:#21ae78;fill-opacity:1">
        <path
           id="path4267"
           d="m 439.829,6.776 -385.065,0 c -16.46,0 -29.852,13.392 -29.852,29.852 0,16.46 13.392,29.852 29.852,29.852 l 19.599,0 c 6.23,0 11.298,5.068 11.298,11.298 l 0,12.087 c 0,5.123 4.153,9.276 9.276,9.276 5.123,0 9.276,-4.153 9.276,-9.276 l 0,-12.087 c 0,-16.459 -13.391,-29.85 -29.85,-29.85 l -19.599,0 c -6.231,0 -11.3,-5.07 -11.3,-11.3 0,-6.231 5.07,-11.3 11.3,-11.3 l 385.065,0 c 5.123,0 9.276,-4.153 9.276,-9.276 0,-5.123 -4.153,-9.276 -9.276,-9.276 z"
           style="fill:#21ae78;fill-opacity:1" />
      </g>
    </g>
    <g
       id="g4269"
       style="fill:#21ae78;fill-opacity:1">
      <g
         id="g4271"
         style="fill:#21ae78;fill-opacity:1">
        <path
           id="path4273"
           d="m 187.368,47.929 -42.463,0 c -16.459,0 -29.85,13.391 -29.85,29.85 l 0,12.087 c 0,5.123 4.153,9.276 9.276,9.276 5.123,0 9.276,-4.153 9.276,-9.276 l 0,-12.088 c 0,-6.23 5.068,-11.298 11.298,-11.298 l 42.463,0 c 6.23,0 11.298,5.068 11.298,11.298 l 0,12.087 c 0,5.123 4.153,9.276 9.276,9.276 5.123,0 9.276,-4.153 9.276,-9.276 l 0,-12.087 C 217.217,61.319 203.827,47.929 187.368,47.929 Z"
           style="fill:#21ae78;fill-opacity:1" />
      </g>
    </g>
    <g
       id="g4275"
       style="fill:#21ae78;fill-opacity:1">
      <g
         id="g4277"
         style="fill:#21ae78;fill-opacity:1">
        <path
           id="path4279"
           d="m 486.208,47.929 -226.992,0 c -16.459,0 -29.848,13.391 -29.848,29.85 l 0,12.087 c 0,5.123 4.153,9.276 9.276,9.276 5.123,0 9.276,-4.153 9.276,-9.276 l 0,-12.088 c 0,-6.23 5.068,-11.298 11.298,-11.298 l 226.991,0 c 5.123,0 9.276,-4.153 9.276,-9.276 -0.001,-5.122 -4.154,-9.275 -9.277,-9.275 z"
           style="fill:#21ae78;fill-opacity:1" />
      </g>
    </g>
    <g
       id="g4281"
       style="fill:#21ae78;fill-opacity:1">
      <g
         id="g4283"
         style="fill:#21ae78;fill-opacity:1">
        <path
           id="path4285"
           d="m 462.692,85.162 -176.366,0 c -5.123,0 -9.276,4.153 -9.276,9.276 0,5.123 4.153,9.276 9.276,9.276 l 176.367,0 c 5.123,0 9.276,-4.153 9.276,-9.276 -10e-4,-5.123 -4.154,-9.276 -9.277,-9.276 z"
           style="fill:#21ae78;fill-opacity:1" />
      </g>
    </g>
    <g
       id="g4287"
       style="fill:#21ae78;fill-opacity:1">
      <g
         id="g4289"
         style="fill:#21ae78;fill-opacity:1">
        <path
           id="path4291"
           d="m 419.58,134.152 -107.779,0 c -5.123,0 -9.276,4.153 -9.276,9.276 0,5.123 4.153,9.276 9.276,9.276 l 107.779,0 c 5.124,0 9.276,-4.153 9.276,-9.276 -10e-4,-5.123 -4.154,-9.276 -9.276,-9.276 z"
           style="fill:#21ae78;fill-opacity:1" />
      </g>
    </g>
    <g
       id="g4293"
       style="fill:#21ae78;fill-opacity:1">
      <g
         id="g4295"
         style="fill:#21ae78;fill-opacity:1">
        <path
           id="path4297"
           d="m 341.196,178.151 -56.83,0 c -5.123,0 -9.276,4.153 -9.276,9.276 0,5.123 4.153,9.276 9.276,9.276 l 56.83,0 c 5.123,0 9.276,-4.153 9.276,-9.276 0,-5.123 -4.153,-9.276 -9.276,-9.276 z"
           style="fill:#21ae78;fill-opacity:1" />
      </g>
    </g>
    <g
       id="g4299"
       style="fill:#21ae78;fill-opacity:1">
      <g
         id="g4301"
         style="fill:#21ae78;fill-opacity:1">
        <path
           id="path4303"
           d="m 502.724,486.672 -29.156,0 0,-163.104 c 0,-5.123 -4.153,-9.276 -9.276,-9.276 l -35.566,0 0,-82.864 c 0,-3.115 -1.563,-6.022 -4.163,-7.74 -2.598,-1.717 -5.887,-2.013 -8.751,-0.793 l -92.14,39.294 c -3.418,1.458 -5.637,4.816 -5.637,8.532 l 0,43.57 -51.152,0 -20.113,-197.49 c -0.482,-4.734 -4.47,-8.336 -9.228,-8.336 l -34.939,0 c -4.759,0 -8.745,3.602 -9.228,8.336 l -20.114,197.491 -19.264,0 -20.115,-197.491 c -0.482,-4.734 -4.47,-8.336 -9.228,-8.336 l -34.937,0 c -4.759,0 -8.746,3.602 -9.228,8.336 l -20.115,197.491 -12.667,0 c -5.123,0 -9.276,4.153 -9.276,9.276 l 0,163.105 -29.155,0 c -5.123,0 -9.276,4.153 -9.276,9.276 0,5.123 4.153,9.276 9.276,9.276 l 493.448,0 c 5.123,0 9.276,-4.153 9.276,-9.276 0,-5.124 -4.153,-9.277 -9.276,-9.277 z M 336.587,276.85 l 73.588,-31.382 0,68.824 -73.588,0 0,-37.442 z m -125.603,-149.833 18.179,0 2.826,27.743 -23.831,0 2.826,-27.743 z m -4.717,46.295 27.61,0 14.358,140.98 -56.326,0 14.358,-140.98 z m -108.171,-46.295 18.181,0 2.826,27.743 -23.833,0 2.826,-27.743 z m -4.715,46.295 27.611,0 14.358,140.98 -56.328,0 14.359,-140.98 z m 361.637,313.36 -398.035,0 0,-153.829 398.035,0 0,153.829 z"
           style="fill:#21ae78;fill-opacity:1" />
      </g>
    </g>
    <g
       id="g4305"
       style="fill:#21ae78;fill-opacity:1" />
    <g
       id="g4307"
       style="fill:#21ae78;fill-opacity:1" />
    <g
       id="g4309"
       style="fill:#21ae78;fill-opacity:1" />
    <g
       id="g4311"
       style="fill:#21ae78;fill-opacity:1" />
    <g
       id="g4313"
       style="fill:#21ae78;fill-opacity:1" />
    <g
       id="g4315"
       style="fill:#21ae78;fill-opacity:1" />
    <g
       id="g4317"
       style="fill:#21ae78;fill-opacity:1" />
    <g
       id="g4319"
       style="fill:#21ae78;fill-opacity:1" />
    <g
       id="g4321"
       style="fill:#21ae78;fill-opacity:1" />
    <g
       id="g4323"
       style="fill:#21ae78;fill-opacity:1" />
    <g
       id="g4325"
       style="fill:#21ae78;fill-opacity:1" />
    <g
       id="g4327"
       style="fill:#21ae78;fill-opacity:1" />
    <g
       id="g4329"
       style="fill:#21ae78;fill-opacity:1" />
    <g
       id="g4331"
       style="fill:#21ae78;fill-opacity:1" />
    <g
       id="g4333"
       style="fill:#21ae78;fill-opacity:1" />
  </g>
  <path
     id="path4454"
     d="m 463.9983,46.652895 c 0,-20.189181 -15.51298,-36.939302 -35.635,-38.882689 -0.72863,-2.473136 -3.03897,-4.287128 -5.77371,-4.287128 l -33.17949,0 c -2.73474,0 -5.04478,1.813992 -5.77342,4.287128 C 363.51412,9.716129 348,26.466529 348,46.652895 l 0,31.199484 c 0,6.625193 5.45441,12.015249 12.15841,12.015249 l 9.46517,0 c 2.81683,0 5.1084,-2.264536 5.1084,-5.048134 l 0,-33.153264 c 0,-2.783598 -2.29157,-5.04815 -5.1084,-5.04815 l -9.46517,0 c -3.01282,0 -5.77113,1.090879 -7.89739,2.890844 l 0,-2.856029 c 0,-17.985552 13.80149,-32.914644 31.71714,-34.685144 0.96611,2.009924 3.0344,3.406224 5.43194,3.406224 l 33.17949,0 c 2.39755,0 4.46585,-1.3963 5.43225,-3.406224 17.91483,1.768242 31.71545,16.697349 31.71545,34.685423 l 0,2.854621 c -2.12634,-1.799129 -4.884,-2.889715 -7.89604,-2.889715 l -9.46513,0 c -2.81681,0 -5.10841,2.264552 -5.10841,5.04815 l 0,33.152985 c 0,2.783598 2.2916,5.04815 5.10841,5.04815 l 9.46513,0 c 3.01286,0 5.77122,-1.090879 7.89775,-2.891122 l 0,1.532438 c 0,7.955233 -6.54952,14.427459 -14.59972,14.427459 l -25.81761,0 c -0.93401,-3.317521 -4.01671,-5.759754 -7.66729,-5.759754 l -7.77127,0 c -4.38856,0 -7.95904,3.528354 -7.95904,7.865144 0,4.33679 3.57048,7.86514 7.95904,7.86514 l 7.77127,0 c 3.65058,0 6.73328,-2.44224 7.66729,-5.75978 l 25.81761,0 C 455.53901,107.1469 464,98.786018 464,88.508681 l 0,-41.855786 z m -93.52706,5.013335 0,33.152985 c 0,0.461773 -0.38008,0.837366 -0.84736,0.837366 l -0.8474,0 0,-34.827747 0.8474,0 c 0.46728,0 0.84736,0.375623 0.84736,0.837396 z m -10.31283,-0.837396 4.35677,0 0,34.828041 -4.35677,0 c -4.35477,0 -7.89739,-3.501097 -7.89739,-7.804496 l 0,-19.219313 c 0,-4.303399 3.5429,-7.804232 7.89739,-7.804232 z m 62.43118,-39.665891 -33.17949,0 c -0.96781,0 -1.75525,-0.778159 -1.75525,-1.734556 0,-0.956397 0.78744,-1.73454 1.75525,-1.73454 l 33.17949,0 c 0.96783,0 1.75556,0.778143 1.75556,1.73454 0,0.956397 -0.78773,1.734556 -1.75556,1.734556 z m 18.93891,73.656272 0,-33.152985 c 0,-0.461773 0.38003,-0.837396 0.84734,-0.837396 l 0.84735,0 0,34.828041 -0.84735,0 c -0.46731,0 -0.84734,-0.375887 -0.84734,-0.83766 z m -29.87412,23.876975 -7.77127,0 c -2.03903,0 -3.698,-1.63939 -3.698,-3.65439 0,-2.01498 1.65897,-3.65437 3.698,-3.65437 l 7.77127,0 c 2.03934,0 3.69828,1.63939 3.69828,3.65437 0,2.015 -1.65894,3.65439 -3.69828,3.65439 z m 40.18687,-23.039315 -4.35671,0 0,-34.828041 4.35671,0 c 4.35484,0 7.89775,3.501127 7.89775,7.804232 l 0,19.219313 c 0,4.303399 -3.54291,7.804496 -7.89775,7.804496 z"
     style="fill:#fab31a;fill-opacity:1" />
</svg>
