<?xml version="1.0" encoding="UTF-8" standalone="no"?>
<svg
   xmlns:dc="http://purl.org/dc/elements/1.1/"
   xmlns:cc="http://creativecommons.org/ns#"
   xmlns:rdf="http://www.w3.org/1999/02/22-rdf-syntax-ns#"
   xmlns:svg="http://www.w3.org/2000/svg"
   xmlns="http://www.w3.org/2000/svg"
   height="75"
   width="300"
   version="1.1"
   viewBox="0 0 300 74.999999"
   enable-background="new 0 0 437.501 437.501"
   id="svg2">
  <metadata
     id="metadata16">
    <rdf:RDF>
      <cc:Work
         rdf:about="">
        <dc:format>image/svg+xml</dc:format>
        <dc:type
           rdf:resource="http://purl.org/dc/dcmitype/StillImage" />
        <dc:title></dc:title>
      </cc:Work>
    </rdf:RDF>
  </metadata>
  <defs
     id="defs14" />
  <path
     id="path6"
     d="m 186.91939,29.19016 c -6.78075,0 -12.29717,5.57537 -12.29717,12.42858 0,6.8532 5.51642,12.42857 12.29717,12.42857 6.78074,0 12.29717,-5.57537 12.29717,-12.42857 0,-6.85321 -5.51643,-12.42858 -12.29717,-12.42858 z m 0,22.28573 c -5.37785,0 -9.75293,-4.42183 -9.75293,-9.85715 0,-5.4353 4.37508,-9.85715 9.75293,-9.85715 5.37783,0 9.75292,4.42185 9.75292,9.85715 0,5.43532 -4.37509,9.85715 -9.75292,9.85715 z"
     style="fill:#ffffff;fill-opacity:1" />
  <path
     id="path8"
     d="m 186.91939,33.95382 c -4.18172,0 -7.58388,3.43853 -7.58388,7.66492 0,4.22658 3.40216,7.66508 7.58388,7.66508 4.1817,0 7.58404,-3.4385 7.58404,-7.66508 0,-4.22639 -3.40217,-7.66492 -7.58404,-7.66492 z m 0,2.57143 c 0.36586,0 0.72256,0.0406 1.06654,0.11591 l -4.86086,8.32441 c -0.77446,-0.89588 -1.24531,-2.06639 -1.24531,-3.34663 0,-2.80868 2.2608,-5.09366 5.03963,-5.09366 z m 0,10.18714 c -0.59196,0 -1.15984,-0.10458 -1.68803,-0.29485 l 5.02725,-8.60932 c 1.04197,0.93395 1.70059,2.29561 1.70059,3.81052 0,2.80869 -2.26082,5.09365 -5.03981,5.09365 z"
     style="fill:#ffffff;fill-opacity:1" />
  <path
     id="path10"
     d="m 210.19444,49.68429 c -2.19313,-3.83041 -4.36235,-6.6564 -5.06693,-7.54337 -0.48544,-3.07304 -1.13643,-6.15498 -1.95416,-9.23898 C 200.14114,21.46524 194.96971,10.57492 187.80291,0.53366 187.56359,0.19851 187.17975,0 186.77097,0 c -0.40878,0 -0.79262,0.19851 -1.0316,0.53349 -7.16714,10.04124 -12.33856,20.93159 -15.37079,32.36829 -0.81772,3.08416 -1.4687,6.1661 -1.95414,9.23931 -0.70493,0.88714 -2.8738,3.71279 -5.06677,7.54303 C 159.79913,55.88144 158,61.47326 158,66.30447 c 0,0.71004 0.56941,1.28572 1.27212,1.28572 4.45616,0 8.97303,-0.44572 9.958,-0.54891 0.92899,0.18255 1.85917,0.35021 2.79001,0.50363 l -0.57365,5.24916 c -0.0369,0.3389 0.0608,0.67885 0.27175,0.94508 0.21099,0.26604 0.518,0.43663 0.85333,0.47399 4.70396,0.52475 9.44133,0.78686 14.17872,0.78686 4.73721,0 9.47443,-0.26228 14.17854,-0.78686 0.3355,-0.0374 0.64234,-0.20795 0.85335,-0.47416 0.211,-0.26623 0.30852,-0.60617 0.27156,-0.94509 l -0.57348,-5.24194 c 0.94492,-0.15531 1.88901,-0.32537 2.83208,-0.51067 0.98496,0.10321 5.50185,0.54891 9.95799,0.54891 0.70272,0 1.27212,-0.57568 1.27212,-1.28572 -5e-4,-4.83104 -1.79961,-10.42286 -5.348,-16.62018 z M 186.77097,3.51 c 2.93046,4.25863 5.49591,8.66777 7.68735,13.20291 -2.39194,1.13228 -5.02624,1.72715 -7.6882,1.72715 -2.66162,0 -5.29525,-0.5947 -7.68684,-1.72663 2.19162,-4.53531 4.75706,-8.9448 7.68769,-13.20343 z m -19.03075,43.93664 c -0.55346,5.77387 -0.51276,11.50285 0.12306,17.14301 -1.56843,0.14196 -4.37405,0.3607 -7.27025,0.41605 0.47799,-6.47415 4.36101,-13.36936 7.14712,-17.55906 z m 31.64392,24.34542 c -8.39007,0.84909 -16.87851,0.84909 -25.26857,0 l 0.42268,-3.86623 c 4.06858,0.55509 8.15057,0.83281 12.23289,0.83281 4.06808,0 8.13614,-0.27584 12.19064,-0.82714 l 0.42236,3.86056 z m 3.7268,-7.13624 c -10.84729,2.04138 -21.83316,2.04121 -32.68011,0 -1.19088,-10.14445 -0.38604,-20.59816 2.39515,-31.08838 1.31401,-4.956 3.04155,-9.80778 5.17007,-14.52927 2.73065,1.2936 5.73692,1.97314 8.77407,1.97314 3.03766,0 6.04444,-0.67972 8.77526,-1.97365 2.12868,4.72166 3.85622,9.57359 5.17024,14.52978 2.78153,10.49022 3.58636,20.94393 2.39532,31.08838 z m 2.56765,-0.0662 c 0.63589,-5.64188 0.6766,-11.3724 0.12269,-17.14783 2.78627,4.18663 6.67032,11.08047 7.14796,17.56388 -2.89451,-0.0551 -5.70147,-0.27409 -7.2706,-0.41605 z"
     style="fill:#ffffff;fill-opacity:1" />
  <g
     style="fill:#ffffff;fill-opacity:1"
     transform="matrix(0.14648437,0,0,0.14462076,0,0.47716)"
     id="g4185">
    <g
       style="fill:#ffffff;fill-opacity:1"
       id="g4137">
      <g
         style="fill:#ffffff;fill-opacity:1"
         id="g4139">
        <path
           style="fill:#ffffff;fill-opacity:1"
           d="m 475.515,120.027 -111.403,0 0,-12.873 c 0,-22.777 -18.53,-41.307 -41.307,-41.307 l -133.61,0 c -22.777,0 -41.307,18.53 -41.307,41.307 l 0,12.873 -111.403,0 C 16.367,120.027 0,136.393 0,156.511 l 0,253.156 c 0,20.118 16.367,36.485 36.485,36.485 l 439.03,0 c 20.118,0 36.485,-16.367 36.485,-36.485 l 0,-253.156 c 0,-20.118 -16.368,-36.484 -36.485,-36.484 z M 168.287,107.153 c 0,-11.529 9.379,-20.908 20.908,-20.908 l 133.61,0 c 11.529,0 20.908,9.379 20.908,20.908 l 0,12.873 -175.426,0 0,-12.873 z m 323.315,302.515 c 0,8.87 -7.216,16.086 -16.086,16.086 l -439.031,0 c -8.87,0 -16.086,-7.216 -16.086,-16.086 l 0,-102.073 17.42,17.287 c 1.91,1.896 4.493,2.96 7.184,2.96 l 160.001,0 0,34.802 c 0,5.633 4.566,10.199 10.199,10.199 l 81.594,0 c 5.632,0 10.199,-4.566 10.199,-10.199 l 0,-34.802 83.633,0 c 5.632,0 10.199,-4.566 10.199,-10.199 0,-5.633 -4.567,-10.199 -10.199,-10.199 l -341.425,0 -28.806,-28.585 0,-122.348 c 0,-8.87 7.217,-16.086 16.086,-16.086 l 439.03,0 c 8.87,0 16.086,7.216 16.086,16.086 l 0,121.355 -31.898,32.648 c -3.937,4.029 -3.861,10.486 0.167,14.423 1.984,1.938 4.556,2.904 7.126,2.904 2.651,0 5.297,-1.026 7.296,-3.072 l 17.31,-17.714 0,102.613 z m -266.2,-57.224 0,-24.603 61.195,0 0,24.603 -61.195,0 z"
           id="path4141" />
      </g>
    </g>
    <g
       style="fill:#ffffff;fill-opacity:1"
       id="g4143">
      <g
         style="fill:#ffffff;fill-opacity:1"
         id="g4145">
        <path
           style="fill:#ffffff;fill-opacity:1"
           d="m 430.406,307.443 -6.12,0 c -5.632,0 -10.199,4.566 -10.199,10.199 0,5.633 4.567,10.199 10.199,10.199 l 6.12,0 c 5.632,0 10.199,-4.566 10.199,-10.199 10e-4,-5.633 -4.567,-10.199 -10.199,-10.199 z"
           id="path4147" />
      </g>
    </g>
    <g
       style="fill:#ffffff;fill-opacity:1"
       id="g4149" />
    <g
       style="fill:#ffffff;fill-opacity:1"
       id="g4151" />
    <g
       style="fill:#ffffff;fill-opacity:1"
       id="g4153" />
    <g
       style="fill:#ffffff;fill-opacity:1"
       id="g4155" />
    <g
       style="fill:#ffffff;fill-opacity:1"
       id="g4157" />
    <g
       style="fill:#ffffff;fill-opacity:1"
       id="g4159" />
    <g
       style="fill:#ffffff;fill-opacity:1"
       id="g4161" />
    <g
       style="fill:#ffffff;fill-opacity:1"
       id="g4163" />
    <g
       style="fill:#ffffff;fill-opacity:1"
       id="g4165" />
    <g
       style="fill:#ffffff;fill-opacity:1"
       id="g4167" />
    <g
       style="fill:#ffffff;fill-opacity:1"
       id="g4169" />
    <g
       style="fill:#ffffff;fill-opacity:1"
       id="g4171" />
    <g
       style="fill:#ffffff;fill-opacity:1"
       id="g4173" />
    <g
       style="fill:#ffffff;fill-opacity:1"
       id="g4175" />
    <g
       style="fill:#ffffff;fill-opacity:1"
       id="g4177" />
  </g>
  <g
     style="fill:#ffffff;fill-opacity:1"
     transform="matrix(0.14648438,0,0,0.14542735,75.235785,0.52646)"
     id="g4341">
    <g
       style="fill:#ffffff;fill-opacity:1"
       id="g4209">
      <g
         style="fill:#ffffff;fill-opacity:1"
         id="g4211">
        <path
           style="fill:#ffffff;fill-opacity:1"
           d="m 163.865,357.388 -70.014,0 c -5.123,0 -9.276,4.153 -9.276,9.276 0,5.123 4.153,9.276 9.276,9.276 l 70.013,0 c 5.123,0 9.276,-4.153 9.276,-9.276 0,-5.123 -4.152,-9.276 -9.275,-9.276 z"
           id="path4213" />
      </g>
    </g>
    <g
       style="fill:#ffffff;fill-opacity:1"
       id="g4215">
      <g
         style="fill:#ffffff;fill-opacity:1"
         id="g4217">
        <path
           style="fill:#ffffff;fill-opacity:1"
           d="m 163.865,400.481 -70.014,0 c -5.123,0 -9.276,4.153 -9.276,9.276 0,5.123 4.153,9.276 9.276,9.276 l 70.013,0 c 5.123,0 9.276,-4.153 9.276,-9.276 0,-5.123 -4.152,-9.276 -9.275,-9.276 z"
           id="path4219" />
      </g>
    </g>
    <g
       style="fill:#ffffff;fill-opacity:1"
       id="g4221">
      <g
         style="fill:#ffffff;fill-opacity:1"
         id="g4223">
        <path
           style="fill:#ffffff;fill-opacity:1"
           d="m 163.865,443.574 -70.014,0 c -5.123,0 -9.276,4.153 -9.276,9.276 0,5.123 4.153,9.276 9.276,9.276 l 70.013,0 c 5.123,0 9.276,-4.153 9.276,-9.276 0,-5.123 -4.152,-9.276 -9.275,-9.276 z"
           id="path4225" />
      </g>
    </g>
    <g
       style="fill:#ffffff;fill-opacity:1"
       id="g4227">
      <g
         style="fill:#ffffff;fill-opacity:1"
         id="g4229">
        <path
           style="fill:#ffffff;fill-opacity:1"
           d="m 291.007,357.388 -70.014,0 c -5.123,0 -9.276,4.153 -9.276,9.276 0,5.123 4.153,9.276 9.276,9.276 l 70.014,0 c 5.123,0 9.276,-4.153 9.276,-9.276 0,-5.123 -4.153,-9.276 -9.276,-9.276 z"
           id="path4231" />
      </g>
    </g>
    <g
       style="fill:#ffffff;fill-opacity:1"
       id="g4233">
      <g
         style="fill:#ffffff;fill-opacity:1"
         id="g4235">
        <path
           style="fill:#ffffff;fill-opacity:1"
           d="m 291.007,400.481 -70.014,0 c -5.123,0 -9.276,4.153 -9.276,9.276 0,5.123 4.153,9.276 9.276,9.276 l 70.014,0 c 5.123,0 9.276,-4.153 9.276,-9.276 0,-5.123 -4.153,-9.276 -9.276,-9.276 z"
           id="path4237" />
      </g>
    </g>
    <g
       style="fill:#ffffff;fill-opacity:1"
       id="g4239">
      <g
         style="fill:#ffffff;fill-opacity:1"
         id="g4241">
        <path
           style="fill:#ffffff;fill-opacity:1"
           d="m 291.007,443.574 -70.014,0 c -5.123,0 -9.276,4.153 -9.276,9.276 0,5.123 4.153,9.276 9.276,9.276 l 70.014,0 c 5.123,0 9.276,-4.153 9.276,-9.276 0,-5.123 -4.153,-9.276 -9.276,-9.276 z"
           id="path4243" />
      </g>
    </g>
    <g
       style="fill:#ffffff;fill-opacity:1"
       id="g4245">
      <g
         style="fill:#ffffff;fill-opacity:1"
         id="g4247">
        <path
           style="fill:#ffffff;fill-opacity:1"
           d="m 418.149,357.388 -70.013,0 c -5.123,0 -9.276,4.153 -9.276,9.276 0,5.123 4.153,9.276 9.276,9.276 l 70.013,0 c 5.123,0 9.276,-4.153 9.276,-9.276 -0.001,-5.123 -4.154,-9.276 -9.276,-9.276 z"
           id="path4249" />
      </g>
    </g>
    <g
       style="fill:#ffffff;fill-opacity:1"
       id="g4251">
      <g
         style="fill:#ffffff;fill-opacity:1"
         id="g4253">
        <path
           style="fill:#ffffff;fill-opacity:1"
           d="m 418.149,400.481 -70.013,0 c -5.123,0 -9.276,4.153 -9.276,9.276 0,5.123 4.153,9.276 9.276,9.276 l 70.013,0 c 5.123,0 9.276,-4.153 9.276,-9.276 -0.001,-5.123 -4.154,-9.276 -9.276,-9.276 z"
           id="path4255" />
      </g>
    </g>
    <g
       style="fill:#ffffff;fill-opacity:1"
       id="g4257">
      <g
         style="fill:#ffffff;fill-opacity:1"
         id="g4259">
        <path
           style="fill:#ffffff;fill-opacity:1"
           d="m 418.149,443.574 -70.013,0 c -5.123,0 -9.276,4.153 -9.276,9.276 0,5.123 4.153,9.276 9.276,9.276 l 70.013,0 c 5.123,0 9.276,-4.153 9.276,-9.276 -0.001,-5.123 -4.154,-9.276 -9.276,-9.276 z"
           id="path4261" />
      </g>
    </g>
    <g
       style="fill:#ffffff;fill-opacity:1"
       id="g4263">
      <g
         style="fill:#ffffff;fill-opacity:1"
         id="g4265">
        <path
           style="fill:#ffffff;fill-opacity:1"
           d="m 439.829,6.776 -385.065,0 c -16.46,0 -29.852,13.392 -29.852,29.852 0,16.46 13.392,29.852 29.852,29.852 l 19.599,0 c 6.23,0 11.298,5.068 11.298,11.298 l 0,12.087 c 0,5.123 4.153,9.276 9.276,9.276 5.123,0 9.276,-4.153 9.276,-9.276 l 0,-12.087 c 0,-16.459 -13.391,-29.85 -29.85,-29.85 l -19.599,0 c -6.231,0 -11.3,-5.07 -11.3,-11.3 0,-6.231 5.07,-11.3 11.3,-11.3 l 385.065,0 c 5.123,0 9.276,-4.153 9.276,-9.276 0,-5.123 -4.153,-9.276 -9.276,-9.276 z"
           id="path4267" />
      </g>
    </g>
    <g
       style="fill:#ffffff;fill-opacity:1"
       id="g4269">
      <g
         style="fill:#ffffff;fill-opacity:1"
         id="g4271">
        <path
           style="fill:#ffffff;fill-opacity:1"
           d="m 187.368,47.929 -42.463,0 c -16.459,0 -29.85,13.391 -29.85,29.85 l 0,12.087 c 0,5.123 4.153,9.276 9.276,9.276 5.123,0 9.276,-4.153 9.276,-9.276 l 0,-12.088 c 0,-6.23 5.068,-11.298 11.298,-11.298 l 42.463,0 c 6.23,0 11.298,5.068 11.298,11.298 l 0,12.087 c 0,5.123 4.153,9.276 9.276,9.276 5.123,0 9.276,-4.153 9.276,-9.276 l 0,-12.087 C 217.217,61.319 203.827,47.929 187.368,47.929 Z"
           id="path4273" />
      </g>
    </g>
    <g
       style="fill:#ffffff;fill-opacity:1"
       id="g4275">
      <g
         style="fill:#ffffff;fill-opacity:1"
         id="g4277">
        <path
           style="fill:#ffffff;fill-opacity:1"
           d="m 486.208,47.929 -226.992,0 c -16.459,0 -29.848,13.391 -29.848,29.85 l 0,12.087 c 0,5.123 4.153,9.276 9.276,9.276 5.123,0 9.276,-4.153 9.276,-9.276 l 0,-12.088 c 0,-6.23 5.068,-11.298 11.298,-11.298 l 226.991,0 c 5.123,0 9.276,-4.153 9.276,-9.276 -0.001,-5.122 -4.154,-9.275 -9.277,-9.275 z"
           id="path4279" />
      </g>
    </g>
    <g
       style="fill:#ffffff;fill-opacity:1"
       id="g4281">
      <g
         style="fill:#ffffff;fill-opacity:1"
         id="g4283">
        <path
           style="fill:#ffffff;fill-opacity:1"
           d="m 462.692,85.162 -176.366,0 c -5.123,0 -9.276,4.153 -9.276,9.276 0,5.123 4.153,9.276 9.276,9.276 l 176.367,0 c 5.123,0 9.276,-4.153 9.276,-9.276 -10e-4,-5.123 -4.154,-9.276 -9.277,-9.276 z"
           id="path4285" />
      </g>
    </g>
    <g
       style="fill:#ffffff;fill-opacity:1"
       id="g4287">
      <g
         style="fill:#ffffff;fill-opacity:1"
         id="g4289">
        <path
           style="fill:#ffffff;fill-opacity:1"
           d="m 419.58,134.152 -107.779,0 c -5.123,0 -9.276,4.153 -9.276,9.276 0,5.123 4.153,9.276 9.276,9.276 l 107.779,0 c 5.124,0 9.276,-4.153 9.276,-9.276 -10e-4,-5.123 -4.154,-9.276 -9.276,-9.276 z"
           id="path4291" />
      </g>
    </g>
    <g
       style="fill:#ffffff;fill-opacity:1"
       id="g4293">
      <g
         style="fill:#ffffff;fill-opacity:1"
         id="g4295">
        <path
           style="fill:#ffffff;fill-opacity:1"
           d="m 341.196,178.151 -56.83,0 c -5.123,0 -9.276,4.153 -9.276,9.276 0,5.123 4.153,9.276 9.276,9.276 l 56.83,0 c 5.123,0 9.276,-4.153 9.276,-9.276 0,-5.123 -4.153,-9.276 -9.276,-9.276 z"
           id="path4297" />
      </g>
    </g>
    <g
       style="fill:#ffffff;fill-opacity:1"
       id="g4299">
      <g
         style="fill:#ffffff;fill-opacity:1"
         id="g4301">
        <path
           style="fill:#ffffff;fill-opacity:1"
           d="m 502.724,486.672 -29.156,0 0,-163.104 c 0,-5.123 -4.153,-9.276 -9.276,-9.276 l -35.566,0 0,-82.864 c 0,-3.115 -1.563,-6.022 -4.163,-7.74 -2.598,-1.717 -5.887,-2.013 -8.751,-0.793 l -92.14,39.294 c -3.418,1.458 -5.637,4.816 -5.637,8.532 l 0,43.57 -51.152,0 -20.113,-197.49 c -0.482,-4.734 -4.47,-8.336 -9.228,-8.336 l -34.939,0 c -4.759,0 -8.745,3.602 -9.228,8.336 l -20.114,197.491 -19.264,0 -20.115,-197.491 c -0.482,-4.734 -4.47,-8.336 -9.228,-8.336 l -34.937,0 c -4.759,0 -8.746,3.602 -9.228,8.336 l -20.115,197.491 -12.667,0 c -5.123,0 -9.276,4.153 -9.276,9.276 l 0,163.105 -29.155,0 c -5.123,0 -9.276,4.153 -9.276,9.276 0,5.123 4.153,9.276 9.276,9.276 l 493.448,0 c 5.123,0 9.276,-4.153 9.276,-9.276 0,-5.124 -4.153,-9.277 -9.276,-9.277 z M 336.587,276.85 l 73.588,-31.382 0,68.824 -73.588,0 0,-37.442 z m -125.603,-149.833 18.179,0 2.826,27.743 -23.831,0 2.826,-27.743 z m -4.717,46.295 27.61,0 14.358,140.98 -56.326,0 14.358,-140.98 z m -108.171,-46.295 18.181,0 2.826,27.743 -23.833,0 2.826,-27.743 z m -4.715,46.295 27.611,0 14.358,140.98 -56.328,0 14.359,-140.98 z m 361.637,313.36 -398.035,0 0,-153.829 398.035,0 0,153.829 z"
           id="path4303" />
      </g>
    </g>
    <g
       style="fill:#ffffff;fill-opacity:1"
       id="g4305" />
    <g
       style="fill:#ffffff;fill-opacity:1"
       id="g4307" />
    <g
       style="fill:#ffffff;fill-opacity:1"
       id="g4309" />
    <g
       style="fill:#ffffff;fill-opacity:1"
       id="g4311" />
    <g
       style="fill:#ffffff;fill-opacity:1"
       id="g4313" />
    <g
       style="fill:#ffffff;fill-opacity:1"
       id="g4315" />
    <g
       style="fill:#ffffff;fill-opacity:1"
       id="g4317" />
    <g
       style="fill:#ffffff;fill-opacity:1"
       id="g4319" />
    <g
       style="fill:#ffffff;fill-opacity:1"
       id="g4321" />
    <g
       style="fill:#ffffff;fill-opacity:1"
       id="g4323" />
    <g
       style="fill:#ffffff;fill-opacity:1"
       id="g4325" />
    <g
       style="fill:#ffffff;fill-opacity:1"
       id="g4327" />
    <g
       style="fill:#ffffff;fill-opacity:1"
       id="g4329" />
    <g
       style="fill:#ffffff;fill-opacity:1"
       id="g4331" />
    <g
       style="fill:#ffffff;fill-opacity:1"
       id="g4333" />
  </g>
  <path
     style="fill:#ffffff;fill-opacity:1"
     d="m 299.9989,30.16351 c 0,-13.05335 -10.02994,-23.88317 -23.03987,-25.13967 -0.4711,-1.59901 -1.96485,-2.77185 -3.733,-2.77185 l -21.45226,0 c -1.76815,0 -3.26171,1.17284 -3.73281,2.77185 C 235.03068,6.28198 225,17.11198 225,30.16351 l 0,20.17208 c 0,4.28353 3.52656,7.76848 7.86104,7.76848 l 6.11972,0 c 1.82123,0 3.30285,-1.46414 3.30285,-3.26388 l 0,-21.4353 c 0,-1.79974 -1.48162,-3.26389 -3.30285,-3.26389 l -6.11972,0 c -1.94794,0 -3.73133,0.70531 -5.10607,1.86908 l 0,-1.84657 c 0,-11.62859 8.92338,-21.28102 20.50677,-22.42574 0.62464,1.29952 1.9619,2.2023 3.51203,2.2023 l 21.45226,0 c 1.55014,0 2.8874,-0.90278 3.51223,-2.2023 11.58286,1.14326 20.50568,10.7957 20.50568,22.42592 l 0,1.84566 c -1.37479,-1.16323 -3.15776,-1.86835 -5.1052,-1.86835 l -6.1197,0 c -1.82121,0 -3.30285,1.46415 -3.30285,3.26389 l 0,21.43512 c 0,1.79974 1.48164,3.26389 3.30285,3.26389 l 6.1197,0 c 1.94797,0 3.73139,-0.70531 5.1063,-1.86926 l 0,0.9908 c 0,5.14347 -4.2346,9.3281 -9.43947,9.3281 l -16.69242,0 c -0.60389,-2.14495 -2.59701,-3.72398 -4.9573,-3.72398 l -5.02453,0 c -2.83743,0 -5.14593,2.28126 -5.14593,5.08522 0,2.80396 2.3085,5.08522 5.14593,5.08522 l 5.02453,0 c 2.36029,0 4.35341,-1.57903 4.9573,-3.72399 l 16.69242,0 C 294.52953,69.27601 300,63.87027 300,57.22544 l 0,-27.06193 z m -60.47008,3.24138 0,21.43512 c 0,0.29856 -0.24574,0.5414 -0.54786,0.5414 l -0.54789,0 0,-22.51794 0.54789,0 c 0.30212,0 0.54786,0.24286 0.54786,0.54142 z m -6.66778,-0.54142 2.81688,0 0,22.51813 -2.81688,0 c -2.81558,0 -5.10607,-2.26364 -5.10607,-5.04601 l 0,-12.42628 c 0,-2.78237 2.29067,-5.04584 5.10607,-5.04584 z m 40.36499,-25.64605 -21.45226,0 c -0.62574,0 -1.13486,-0.50312 -1.13486,-1.12148 0,-0.61836 0.50912,-1.12147 1.13486,-1.12147 l 21.45226,0 c 0.62575,0 1.13506,0.50311 1.13506,1.12147 0,0.61836 -0.50931,1.12148 -1.13506,1.12148 z m 12.24498,47.62259 0,-21.43512 c 0,-0.29856 0.24571,-0.54142 0.54785,-0.54142 l 0.54786,0 0,22.51813 -0.54786,0 c -0.30214,0 -0.54785,-0.24303 -0.54785,-0.54159 z m -19.31516,15.4377 -5.02453,0 c -1.31834,0 -2.39095,-1.05995 -2.39095,-2.36275 0,-1.30279 1.07261,-2.36274 2.39095,-2.36274 l 5.02453,0 c 1.31854,0 2.39113,1.05995 2.39113,2.36274 0,1.3028 -1.07259,2.36275 -2.39113,2.36275 z m 25.98289,-14.89611 -2.81684,0 0,-22.51813 2.81684,0 c 2.81563,0 5.1063,2.26366 5.1063,5.04584 l 0,12.42628 c 0,2.78237 -2.29067,5.04601 -5.1063,5.04601 z"
     id="path4454" />
</svg>
