<?xml version="1.0" encoding="UTF-8" standalone="no"?>
<!-- Generator: Adobe Illustrator 19.0.0, SVG Export Plug-In . SVG Version: 6.00 Build 0)  -->

<svg
   xmlns:dc="http://purl.org/dc/elements/1.1/"
   xmlns:cc="http://creativecommons.org/ns#"
   xmlns:rdf="http://www.w3.org/1999/02/22-rdf-syntax-ns#"
   xmlns:svg="http://www.w3.org/2000/svg"
   xmlns="http://www.w3.org/2000/svg"
   xmlns:sodipodi="http://sodipodi.sourceforge.net/DTD/sodipodi-0.dtd"
   xmlns:inkscape="http://www.inkscape.org/namespaces/inkscape"
   version="1.1"
   id="Layer_1"
   x="0px"
   y="0px"
   viewBox="0 0 290.626 290.626"
   style="enable-background:new 0 0 290.626 290.626;"
   xml:space="preserve"
   inkscape:version="0.91 r13725"
   sodipodi:docname="list.svg"><metadata
     id="metadata69"><rdf:RDF><cc:Work
         rdf:about=""><dc:format>image/svg+xml</dc:format><dc:type
           rdf:resource="http://purl.org/dc/dcmitype/StillImage" /></cc:Work></rdf:RDF></metadata><defs
     id="defs67" /><sodipodi:namedview
     pagecolor="#ffffff"
     bordercolor="#666666"
     borderopacity="1"
     objecttolerance="10"
     gridtolerance="10"
     guidetolerance="10"
     inkscape:pageopacity="0"
     inkscape:pageshadow="2"
     inkscape:window-width="1920"
     inkscape:window-height="1017"
     id="namedview65"
     showgrid="false"
     inkscape:zoom="0.8120402"
     inkscape:cx="145.313"
     inkscape:cy="145.313"
     inkscape:window-x="-8"
     inkscape:window-y="-8"
     inkscape:window-maximized="1"
     inkscape:current-layer="Layer_1" /><circle
     style="fill:#fab31a;fill-opacity:1"
     cx="65.625999"
     cy="79.688004"
     r="23.438"
     id="circle7" /><polygon
     style="fill:#ffffff;fill-opacity:1"
     points="43.562,83.002 55.961,95.405 87.381,69.225 81.371,62.025 56.542,82.72 50.19,76.373 "
     id="polygon9" /><rect
     x="103.126"
     y="65.625"
     style="fill:#ffffff;fill-opacity:1"
     width="70.311996"
     height="9.375"
     id="rect11" /><rect
     x="103.126"
     y="84.375"
     style="fill:#ffffff;fill-opacity:1"
     width="79.686996"
     height="9.375"
     id="rect13" /><polygon
     style="fill:#ffffff;fill-opacity:1"
     points="43.562,129.877 55.961,142.28 87.381,116.1 81.371,108.9 56.542,129.595 50.19,123.248 "
     id="polygon15" /><rect
     x="103.126"
     y="112.5"
     style="fill:#ffffff;fill-opacity:1"
     width="98.436996"
     height="9.375"
     id="rect17" /><rect
     x="103.126"
     y="131.25"
     style="fill:#ffffff;fill-opacity:1"
     width="18.75"
     height="9.375"
     id="rect19" /><rect
     x="131.25101"
     y="131.25"
     style="fill:#ffffff;fill-opacity:1"
     width="70.311996"
     height="9.375"
     id="rect21" /><polygon
     style="fill:#ffffff;fill-opacity:1"
     points="43.562,176.752 55.961,189.155 87.381,162.975 81.371,155.775 56.542,176.47 50.19,170.123 "
     id="polygon23" /><rect
     x="103.126"
     y="159.375"
     style="fill:#ffffff;fill-opacity:1"
     width="98.436996"
     height="9.375"
     id="rect25" /><rect
     x="103.126"
     y="178.125"
     style="fill:#ffffff;fill-opacity:1"
     width="70.311996"
     height="9.375"
     id="rect27" /><rect
     x="182.813"
     y="178.125"
     style="fill:#ffffff;fill-opacity:1"
     width="18.75"
     height="9.375"
     id="rect29" /><rect
     x="182.813"
     y="65.625"
     style="fill:#ffffff;fill-opacity:1"
     width="18.75"
     height="9.375"
     id="rect31" /><path
     style="fill:#ffffff;fill-opacity:1"
     d="m 276.563,215.625 -9.375,0 -9.375,0 -9.375,0 -9.375,0 0,-192.187 C 239.063,10.514 228.549,0 215.626,0 L 23.439,0 C 10.515,0 0.001,10.514 0.001,23.438 c 0,12.924 10.514,23.438 23.437,23.438 l 0,243.75 196.875,0 0,-28.126 18.75,0 0,-18.75 9.375,0 9.375,0 9.375,0 9.375,0 c 7.753,0 14.062,-6.309 14.062,-14.063 0,-7.754 -6.309,-14.062 -14.062,-14.062 z m -46.875,-192.187 0,192.188 -9.375,0 0,-178.126 -4.688,0 c -7.753,0 -14.062,-6.309 -14.062,-14.063 0,-7.754 6.309,-14.063 14.062,-14.063 7.753,0 14.063,6.31 14.063,14.064 z m -220.312,0 c 0,-7.753 6.309,-14.063 14.062,-14.063 l 173.559,0 c -2.977,3.928 -4.809,8.766 -4.809,14.063 0,5.297 1.833,10.134 4.809,14.063 l -173.558,0 C 15.686,37.5 9.376,31.191 9.376,23.438 Z m 23.438,257.812 0,-234.375 178.125,0 0,168.75 -132.01,0 -42.187,14.063 42.187,14.063 132.009,0 0,37.5 -178.124,0 0,-10e-4 z m 33.572,-51.562 8.615,-2.874 0,5.742 -8.615,-2.868 z m 163.302,23.437 -9.375,0 0,-9.375 9.375,0 0,9.375 z m 9.375,-18.75 -154.687,0 0,-9.375 154.687,0 0,9.375 z m 18.75,0 -9.375,0 0,-9.375 9.375,0 0,9.375 z m 18.75,0 -9.375,0 0,-9.375 9.375,0 c 2.587,0 4.687,2.105 4.687,4.688 0,2.583 -2.099,4.687 -4.687,4.687 z"
     id="path33"
     inkscape:connector-curvature="0" /><g
     id="g35" /><g
     id="g37" /><g
     id="g39" /><g
     id="g41" /><g
     id="g43" /><g
     id="g45" /><g
     id="g47" /><g
     id="g49" /><g
     id="g51" /><g
     id="g53" /><g
     id="g55" /><g
     id="g57" /><g
     id="g59" /><g
     id="g61" /><g
     id="g63" /></svg>