<svg xmlns="http://www.w3.org/2000/svg" viewBox="0 0 277.99992 30.116451" height="30.116" width="278"><path d="M76.47 33.75c0-5.883-16.47-10.654-36.85-10.654-20.378 0-36.848 4.771-36.848 10.654 0 5.89 16.47 10.663 36.849 10.663C60 44.413 76.47 39.64 76.47 33.75z" fill="none" stroke="#399068" stroke-width="1.404" stroke-miterlimit="1" transform="matrix(.4419 0 0 -.44177 -.915 30.101)"/><path d="M23.505 1.442L28.27 0l-6.65 12.925-4.765 1.444 6.65-12.927z" fill="#f7d827"/><path d="M11.41 9.646l4.765-1.442-6.65 12.925-4.764 1.444 6.65-12.927zm9.006 7.544l4.765-1.442-6.65 12.925-4.764 1.443 6.649-12.925zm28.012 9.762c2.67 0 4.869-.51 6.649-1.53 1.78-1.019 3.141-2.357 3.98-4.012.837-1.655 1.256-3.437 1.256-5.345 0-1.863-.419-3.623-1.257-5.28-.838-1.658-2.199-3.005-3.979-4.043-1.78-1.038-3.98-1.557-6.65-1.557h-5.393v21.767h5.394zM45.129 6.924h3.09c1.36 0 2.67.193 3.874.58a9.883 9.883 0 0 1 3.141 1.74c.89.771 1.571 1.73 2.095 2.877.523 1.146.733 2.461.733 3.944 0 1.59-.314 3.074-.943 4.457-.628 1.382-1.675 2.509-3.141 3.382-1.466.873-3.404 1.31-5.76 1.31H45.13V6.923zm31.938 20.028v-1.739h-9.529v-9.58h9.215v-1.74h-9.215V6.924h9.53V5.185H65.443v21.767h11.623zm19.53-1.95c-1.361.557-2.722.835-4.136.835a8.46 8.46 0 0 1-4.45-1.25c-1.414-.832-2.514-1.991-3.351-3.477-.838-1.485-1.205-3.167-1.205-5.045 0-1.26.21-2.476.629-3.648.471-1.172 1.1-2.22 1.884-3.144.838-.923 1.78-1.65 2.932-2.179a8.169 8.169 0 0 1 3.56-.792c2.985 0 5.604 1.11 7.907 3.333v-2.46c-1.31-.982-2.566-1.663-3.874-2.042-1.31-.38-2.671-.57-4.084-.57-1.624 0-3.142.3-4.556.903a10.738 10.738 0 0 0-3.56 2.513 11.225 11.225 0 0 0-2.304 3.702 12.365 12.365 0 0 0-.785 4.384c0 1.726.261 3.302.89 4.726a10.565 10.565 0 0 0 2.461 3.66 10.824 10.824 0 0 0 3.612 2.323c1.362.534 2.776.8 4.242.8 3.036 0 5.707-.85 7.958-2.55v-2.422a12.826 12.826 0 0 1-3.77 2.4zm10.106 1.95V15.845h12.513v11.107h2.147V5.185h-2.147v8.921h-12.513v-8.92h-2.095v21.766h2.095zm20.576-6.468a12.061 12.061 0 0 0 2.356 3.697c1.047 1.063 2.304 1.894 3.77 2.494 1.466.6 3.09.9 4.817.9 1.728 0 3.299-.3 4.765-.9 1.465-.6 2.722-1.434 3.77-2.505 1.047-1.07 1.833-2.302 2.408-3.694.524-1.392.785-2.862.785-4.411 0-1.554-.261-3.025-.785-4.415-.575-1.39-1.361-2.619-2.409-3.69-1.047-1.07-2.304-1.904-3.77-2.501-1.413-.597-3.036-.897-4.764-.897-1.78 0-3.351.3-4.817.897-1.466.597-2.723 1.428-3.77 2.494a12.138 12.138 0 0 0-2.356 3.693c-.523 1.397-.837 2.87-.837 4.419 0 1.544.314 3.017.837 4.419zm2.094-8.113a9.133 9.133 0 0 1 1.885-3.128c.838-.913 1.885-1.632 3.037-2.156 1.204-.524 2.513-.785 3.927-.785 1.414 0 2.723.258 3.927.777 1.152.519 2.199 1.233 2.984 2.142.838.908 1.519 1.951 1.938 3.128.418 1.177.68 2.416.68 3.716 0 1.296-.262 2.532-.68 3.71-.42 1.176-1.1 2.221-1.938 3.134a9.032 9.032 0 0 1-2.984 2.15c-1.204.518-2.513.778-3.927.778-1.414 0-2.723-.262-3.927-.783a8.978 8.978 0 0 1-2.984-2.167 8.666 8.666 0 0 1-1.938-3.136c-.47-1.167-.68-2.395-.68-3.686 0-1.29.21-2.522.68-3.694zm28.064 6.38a29.52 29.52 0 0 1-.209 3.364c-.157.937-.524 1.714-1.047 2.331-.576.618-1.361.927-2.46.927-.158 0-.524-.05-1.153-.151v1.73c.733.127 1.31.19 1.675.19 1.1 0 1.99-.208 2.723-.623a4.12 4.12 0 0 0 1.571-1.738c.42-.744.628-1.614.785-2.608.158-.995.21-2.17.21-3.527V6.924h7.906v20.028h2.094V5.185h-12.095V18.75z" fill="#399068"/><path d="M111.66 7.129c6.042 0 11.018 1.153 15.047 3.463 4.028 2.307 7.109 5.336 9.005 9.082 1.896 3.746 2.844 7.78 2.844 12.1 0 4.215-.948 8.2-2.845 11.951-1.895 3.752-4.976 6.803-9.004 9.151-4.029 2.35-9.005 3.524-15.047 3.524H99.455V7.13h12.205zm-7.465 45.335h6.99c3.082 0 6.043-.437 8.768-1.314a22.393 22.393 0 0 0 7.11-3.936c2.014-1.747 3.555-3.917 4.74-6.513 1.185-2.595 1.658-5.572 1.658-8.928 0-3.598-.71-6.96-2.132-10.088-1.422-3.129-3.792-5.68-7.11-7.656-3.317-1.976-7.702-2.964-13.033-2.964h-6.99v41.4zM176.47 7.13v3.936h-21.564V32.75h20.853v3.938h-20.853v15.776h21.564V56.4h-26.303V7.13h26.303zm44.196 4.416c-3.08-1.262-6.16-1.892-9.361-1.892-3.555 0-6.99.944-10.07 2.827-3.2 1.886-5.688 4.51-7.584 7.873-1.895 3.362-2.725 7.17-2.725 11.42 0 2.854.474 5.605 1.421 8.258 1.067 2.653 2.49 5.024 4.266 7.116 1.895 2.09 4.028 3.734 6.635 4.932 2.489 1.196 5.214 1.794 8.057 1.794 6.754 0 12.679-2.514 17.891-7.544v5.57c-2.962 2.22-5.806 3.763-8.767 4.62a33.016 33.016 0 0 1-9.242 1.292c-3.673 0-7.11-.682-10.309-2.046-3.08-1.364-5.805-3.26-8.057-5.69-2.25-2.427-4.028-5.222-5.213-8.377-1.185-3.157-1.776-6.465-1.776-9.925 0-3.906.591-7.474 2.013-10.698a23.92 23.92 0 0 1 5.57-8.284 24.493 24.493 0 0 1 8.174-5.26 26.059 26.059 0 0 1 9.598-1.812c6.872 0 12.915 1.925 18.01 5.773v5.484c-2.606-2.36-5.45-4.17-8.531-5.431zm22.868-4.416v25.143h28.317V7.129h4.858V56.4h-4.858V36.207h-28.317V56.4h-4.74V7.13h4.74zm46.564 14.642c1.303-3.175 3.08-5.964 5.331-8.37 2.37-2.407 5.214-4.288 8.532-5.645 3.316-1.357 6.99-2.037 10.9-2.037s7.465.68 10.782 2.037c3.317 1.357 6.161 3.246 8.53 5.67 2.37 2.424 4.15 5.21 5.452 8.362 1.184 3.151 1.776 6.479 1.776 9.986 0 3.516-.592 6.847-1.776 9.992-1.303 3.146-3.081 5.93-5.451 8.353-2.37 2.423-5.214 4.31-8.53 5.663-3.2 1.351-6.873 2.03-10.783 2.03-4.028 0-7.584-.679-10.9-2.03-3.318-1.352-6.162-3.233-8.532-5.646-2.251-2.412-4.028-5.2-5.33-8.361-1.186-3.162-1.897-6.496-1.897-10.001 0-3.497.711-6.831 1.896-10.003zm4.739 18.363a20.674 20.674 0 0 0 4.266 7.08c1.896 2.068 4.265 3.697 6.872 4.882 2.724 1.185 5.687 1.777 8.886 1.777 3.199 0 6.162-.586 8.886-1.76 2.607-1.174 4.976-2.791 6.754-4.848 1.896-2.055 3.436-4.416 4.384-7.08.948-2.664 1.54-5.469 1.54-8.412 0-2.933-.592-5.731-1.54-8.396-.948-2.664-2.488-5.03-4.384-7.097a20.433 20.433 0 0 0-6.754-4.864c-2.724-1.174-5.687-1.763-8.886-1.763-3.2 0-6.162.592-8.886 1.773a20.32 20.32 0 0 0-6.754 4.905c-2.014 2.09-3.436 4.457-4.384 7.099-1.066 2.64-1.54 5.422-1.54 8.344 0 2.919.474 5.708 1.54 8.36zm63.508-14.44c0-2.955-.237-5.494-.474-7.617-.356-2.12-1.185-3.88-2.37-5.276-1.303-1.399-3.08-2.097-5.568-2.097-.356 0-1.185.113-2.607.342V7.129c1.659-.287 2.962-.43 3.791-.43 2.488 0 4.503.47 6.161 1.41 1.54.94 2.725 2.25 3.555 3.934.948 1.684 1.422 3.653 1.777 5.904.356 2.252.474 4.911.474 7.983v26.535h17.891V7.129h4.74V56.4h-27.37V25.694z" fill="none" stroke="#399068" stroke-width="2.771" stroke-miterlimit="10.22" transform="matrix(.4419 0 0 -.44177 -.915 30.101)"/><path d="M201 25.001c-1.362.558-2.723.836-4.136.836a8.46 8.46 0 0 1-4.451-1.25c-1.414-.832-2.514-1.991-3.352-3.477-.784-1.485-1.203-3.167-1.203-5.045 0-1.26.21-2.476.628-3.648a11.34 11.34 0 0 1 1.885-3.144c.838-.923 1.78-1.649 2.932-2.178 1.1-.53 2.304-.793 3.612-.793 2.933 0 5.603 1.11 7.854 3.332v-2.46c-1.309-.98-2.565-1.662-3.875-2.041-1.308-.38-2.67-.57-4.083-.57-1.623 0-3.142.3-4.555.903-1.361.603-2.566 1.44-3.56 2.514a11.21 11.21 0 0 0-2.304 3.7 12.37 12.37 0 0 0-.786 4.385c0 1.726.262 3.302.89 4.726a10.557 10.557 0 0 0 2.461 3.66 10.828 10.828 0 0 0 3.613 2.323c1.361.534 2.775.8 4.24.8 3.038 0 5.708-.85 7.96-2.55v-2.422a12.838 12.838 0 0 1-3.77 2.4zm8.43-4.517c.575 1.402 1.36 2.635 2.408 3.697.995 1.063 2.25 1.895 3.717 2.494 1.466.6 3.09.9 4.817.9 1.728 0 3.35-.3 4.765-.9 1.466-.6 2.722-1.435 3.77-2.505 1.047-1.07 1.832-2.302 2.408-3.694.524-1.392.838-2.862.838-4.411 0-1.554-.314-3.026-.838-4.415-.576-1.39-1.36-2.619-2.408-3.69-1.048-1.07-2.304-1.904-3.718-2.501-1.466-.597-3.037-.897-4.817-.897-1.728 0-3.351.3-4.817.897-1.466.597-2.722 1.428-3.717 2.494-1.047 1.065-1.833 2.296-2.409 3.693-.523 1.397-.837 2.87-.837 4.419 0 1.544.314 3.017.837 4.419zm2.094-8.112c.419-1.172 1.099-2.215 1.936-3.129a8.831 8.831 0 0 1 3.037-2.156c1.152-.524 2.462-.785 3.875-.785 1.414 0 2.723.258 3.927.777 1.152.52 2.2 1.233 3.037 2.142a9.024 9.024 0 0 1 1.885 3.128c.47 1.177.68 2.416.68 3.716 0 1.296-.21 2.532-.68 3.709a9.112 9.112 0 0 1-1.885 3.136c-.837.913-1.885 1.63-3.037 2.148-1.204.519-2.513.779-3.927.779-1.413 0-2.723-.262-3.875-.783a8.694 8.694 0 0 1-3.037-2.167c-.837-.924-1.517-1.97-1.936-3.136-.472-1.167-.681-2.395-.681-3.686 0-1.29.21-2.522.68-3.693zm38.117 14.58V23.9h.89c2.147 0 3.927-.356 5.444-1.069 1.467-.714 2.618-1.714 3.404-3.003.785-1.287 1.152-2.76 1.152-4.42 0-1.36-.262-2.574-.733-3.639-.524-1.064-1.205-1.957-2.147-2.675-.89-.718-1.937-1.26-3.141-1.623a14.1 14.1 0 0 0-3.98-.547h-.89V4.312h-2.094v2.612h-.942c-2.147 0-3.979.372-5.498 1.115-1.466.744-2.618 1.756-3.35 3.036-.734 1.28-1.1 2.714-1.1 4.303 0 1.421.314 2.777.994 4.068.629 1.29 1.729 2.349 3.195 3.176 1.518.827 3.402 1.24 5.759 1.24h.942v3.09h2.095zm-6.912-5.508c-1.256-.438-2.199-1.148-2.88-2.131-.628-.983-.942-2.284-.942-3.905 0-1.894.576-3.481 1.78-4.763 1.257-1.282 3.508-1.942 6.86-1.983v13.5c-1.938-.041-3.509-.28-4.818-.718zm15.55-6.036c0 1.626-.313 2.93-.942 3.909-.68.98-1.623 1.69-2.932 2.127-1.257.438-2.827.677-4.764.717V8.662c5.76.081 8.638 2.33 8.638 6.746zm13.3 11.545V6.924h5.811v-1.74h-13.77v1.74h5.864v20.029h2.094z" fill="#399068"/><path d="M456.923 11.545c-3.08-1.262-6.16-1.892-9.359-1.892-3.554 0-6.99.944-10.072 2.83-3.198 1.883-5.687 4.506-7.583 7.87-1.776 3.362-2.724 7.17-2.724 11.42 0 2.854.474 5.605 1.42 8.258 1.068 2.653 2.489 5.024 4.267 7.116 1.895 2.09 4.03 3.733 6.635 4.93 2.488 1.198 5.214 1.796 8.175 1.796 6.635 0 12.679-2.514 17.773-7.543v5.568c-2.962 2.221-5.805 3.764-8.769 4.621-2.96.86-6.041 1.291-9.241 1.291-3.672 0-7.109-.681-10.308-2.045-3.08-1.365-5.806-3.26-8.056-5.69-2.252-2.427-4.03-5.222-5.214-8.377-1.185-3.158-1.778-6.465-1.778-9.925 0-3.906.593-7.474 2.015-10.698a23.891 23.891 0 0 1 5.569-8.284 24.494 24.494 0 0 1 8.175-5.26 26.036 26.036 0 0 1 9.597-1.812c6.872 0 12.916 1.925 18.01 5.773v5.484c-2.607-2.36-5.451-4.17-8.532-5.431zM476 21.77c1.303-3.175 3.08-5.965 5.452-8.37 2.25-2.407 5.093-4.289 8.411-5.645 3.317-1.357 6.99-2.037 10.9-2.037s7.583.68 10.783 2.037c3.318 1.356 6.16 3.248 8.53 5.671 2.372 2.423 4.147 5.21 5.451 8.361 1.185 3.151 1.896 6.479 1.896 9.985 0 3.517-.71 6.849-1.896 9.993-1.304 3.145-3.08 5.93-5.45 8.352-2.37 2.424-5.213 4.312-8.414 5.664-3.317 1.351-6.871 2.028-10.9 2.028-3.91 0-7.583-.677-10.9-2.028-3.318-1.352-6.161-3.233-8.411-5.646-2.371-2.412-4.149-5.198-5.452-8.361-1.184-3.162-1.895-6.496-1.895-10.002 0-3.496.711-6.83 1.895-10.002zm4.74 18.363c.948 2.652 2.487 5.013 4.383 7.08 1.896 2.069 4.149 3.696 6.872 4.882 2.607 1.185 5.57 1.777 8.768 1.777 3.2 0 6.161-.586 8.887-1.76 2.607-1.175 4.978-2.791 6.872-4.848a20.431 20.431 0 0 0 4.268-7.08c1.064-2.664 1.538-5.469 1.538-8.412 0-2.932-.474-5.732-1.538-8.395a20.636 20.636 0 0 0-4.268-7.099c-1.894-2.067-4.265-3.69-6.872-4.863-2.726-1.174-5.687-1.763-8.887-1.763-3.198 0-6.16.593-8.768 1.772-2.724 1.18-4.976 2.815-6.872 4.906-1.896 2.09-3.435 4.457-4.383 7.099-1.067 2.64-1.54 5.42-1.54 8.343 0 2.92.473 5.71 1.54 8.36zm86.257-33.006v6.91h2.014c4.859 0 8.887.806 12.322 2.42 3.318 1.617 5.924 3.88 7.702 6.796 1.776 2.913 2.607 6.248 2.607 10.005 0 3.08-.593 5.827-1.659 8.238-1.185 2.41-2.726 4.43-4.859 6.055-2.013 1.626-4.383 2.852-7.108 3.675-2.844.826-5.805 1.238-9.005 1.238h-2.014v5.911h-4.74v-5.911h-2.132c-4.859 0-9.004-.842-12.442-2.525-3.317-1.684-5.924-3.974-7.582-6.871-1.66-2.898-2.488-6.145-2.488-9.741 0-3.217.71-6.286 2.25-9.208 1.422-2.92 3.911-5.317 7.23-7.19 3.434-1.871 7.699-2.808 13.032-2.808h2.132V7.128h4.74zm-15.64 12.468c-2.843.992-4.976 2.6-6.517 4.825-1.422 2.224-2.132 5.17-2.132 8.838 0 4.288 1.302 7.881 4.027 10.783 2.844 2.9 7.94 4.396 15.522 4.487V17.973c-4.384.092-7.938.633-10.9 1.623zm35.19 13.663c0-3.679-.71-6.63-2.134-8.847-1.539-2.218-3.672-3.824-6.635-4.816-2.843-.99-6.397-1.531-10.78-1.623v30.556c13.033-.183 19.548-5.273 19.548-15.27zm30.095-26.131v45.336h13.152V56.4h-31.162v-3.937h13.27V7.128h4.74z" fill="none" stroke="#399068" stroke-width="2.771" stroke-miterlimit="10.22" transform="matrix(.4419 0 0 -.44177 -.915 30.101)"/></svg>