<?xml version="1.0" encoding="UTF-8" standalone="no"?>
<svg
   xmlns:dc="http://purl.org/dc/elements/1.1/"
   xmlns:cc="http://creativecommons.org/ns#"
   xmlns:rdf="http://www.w3.org/1999/02/22-rdf-syntax-ns#"
   xmlns:svg="http://www.w3.org/2000/svg"
   xmlns="http://www.w3.org/2000/svg"
   version="1.1"
   id="svg2"
   viewBox="0 0 277.99992 30.116451"
   height="30.116451"
   width="277.99991">
  <defs
     id="defs4" />
  <metadata
     id="metadata7">
    <rdf:RDF>
      <cc:Work
         rdf:about="">
        <dc:format>image/svg+xml</dc:format>
        <dc:type
           rdf:resource="http://purl.org/dc/dcmitype/StillImage" />
        <dc:title></dc:title>
      </cc:Work>
    </rdf:RDF>
  </metadata>
  <g
     transform="translate(-8.714208,-4.7302235)"
     id="layer1">
    <g
       id="g4144"
       transform="matrix(1.3532615,0,0,-1.3528917,7.7996453,34.831658)">
      <g
         id="g4146"
         transform="scale(0.32654,0.32654)">
        <path
           d="m 76.4697,33.7504 c 0,-5.883 -16.469,-10.6548 -36.849,-10.6548 -20.3788,0 -36.849,4.7718 -36.849,10.6548 0,5.8899 16.4702,10.6625 36.849,10.6625 20.38,0 36.849,-4.7726 36.849,-10.6625 z"
           style="fill:none;stroke:#399068;stroke-width:1.40411484;stroke-linecap:butt;stroke-linejoin:miter;stroke-miterlimit:1;stroke-dasharray:none;stroke-opacity:1"
           id="path4148" />
      </g>
      <path
         d="m 18.0451,21.1842 3.5206,1.0655 -4.9133,-9.5533 -3.5212,-1.0673 4.9139,9.5551 z"
         style="fill:#f7d827;fill-opacity:1;fill-rule:nonzero;stroke:none"
         id="path4150" />
      <path
         d="m 9.1074,15.1197 3.5209,1.0661 -4.9138,-9.5541 -3.5204,-1.067 4.9133,9.555 z"
         style="fill:#399068;fill-opacity:1;fill-rule:nonzero;stroke:none"
         id="path4152" />
      <path
         d="m 15.762,9.5431 3.5212,1.0664 -4.9138,-9.5536 -3.5206,-1.067 4.9132,9.5542 z"
         style="fill:#399068;fill-opacity:1;fill-rule:nonzero;stroke:none"
         id="path4154" />
      <path
         d="m 36.4618,2.3278 c 1.9729,0 3.598,0.3767 4.9135,1.1308 1.3153,0.7534 2.3213,1.7427 2.9404,2.9658 0.6191,1.2232 0.9286,2.5402 0.9286,3.951 0,1.3765 -0.3095,2.6776 -0.9286,3.9027 -0.6191,1.2251 -1.6251,2.2212 -2.9404,2.988 -1.3155,0.7676 -2.9406,1.1509 -4.9135,1.1509 l -3.9855,0 0,-16.0892 3.9855,0 z m -2.4375,14.8039 2.2827,0 c 1.006,0 1.9729,-0.1428 2.863,-0.4291 0.8512,-0.2863 1.6251,-0.7146 2.3216,-1.2852 0.6576,-0.5707 1.1607,-1.2793 1.5477,-2.1269 0.3869,-0.8473 0.5414,-1.8195 0.5414,-2.9151 0,-1.1753 -0.2319,-2.2728 -0.6962,-3.2945 C 42.4202,6.0593 41.6463,5.2262 40.5629,4.5811 39.4798,3.9356 38.0477,3.613 36.307,3.613 l -2.2827,0 0,13.5187 z m 23.6009,-14.8039 0,1.2852 -7.0418,0 0,7.0816 6.8097,0 0,1.2857 -6.8097,0 0,5.1514 7.0418,0 0,1.2853 -8.5892,0 0,-16.0892 8.5892,0 z M 72.057,3.7698 C 71.051,3.3579 70.0452,3.1521 69.0001,3.1521 c -1.1608,0 -2.2825,0.3082 -3.2882,0.9233 -1.0451,0.6157 -1.8573,1.4723 -2.4763,2.5707 -0.6191,1.0979 -0.8901,2.3411 -0.8901,3.7293 0,0.9317 0.1548,1.83 0.4643,2.6963 0.3484,0.8663 0.8127,1.6407 1.3929,2.3235 0.6188,0.6826 1.3153,1.2195 2.1666,1.6107 0.8127,0.3906 1.7027,0.5859 2.6308,0.5859 2.2056,0 4.1403,-0.8212 5.8425,-2.4636 l 0,1.8187 c -0.9675,0.7251 -1.8961,1.2288 -2.863,1.5089 -0.9675,0.2806 -1.9735,0.4218 -3.0178,0.4218 -1.1996,0 -2.3215,-0.2228 -3.3664,-0.6681 -1.0057,-0.4453 -1.8955,-1.0644 -2.6308,-1.8578 -0.7351,-0.7929 -1.3156,-1.7054 -1.7025,-2.7358 -0.387,-1.0306 -0.58,-2.1109 -0.58,-3.2405 0,-1.2759 0.193,-2.4407 0.6574,-3.4934 0.426,-1.054 1.0448,-1.9554 1.8187,-2.7051 0.7738,-0.7498 1.6633,-1.3227 2.6694,-1.7176 1.006,-0.3945 2.0508,-0.5918 3.1342,-0.5918 2.2439,0 4.2171,0.6287 5.8808,1.8853 l 0,1.7906 C 73.9916,4.7724 73.063,4.1814 72.057,3.7698 Z m 7.4673,-1.442 0,8.2103 9.2469,0 0,-8.2103 1.5862,0 0,16.0892 -1.5862,0 0,-6.594 -9.2469,0 0,6.594 -1.548,0 0,-16.0892 1.548,0 z M 94.7296,7.109 c 0.4255,-1.0366 1.0057,-1.9474 1.7408,-2.7332 0.7738,-0.7857 1.7025,-1.4 2.7859,-1.8433 1.0831,-0.4431 2.2827,-0.665 3.5594,-0.665 1.2767,0 2.4375,0.2219 3.5209,0.665 1.0831,0.4433 2.0118,1.0601 2.7856,1.8516 0.7739,0.7914 1.3547,1.7016 1.7799,2.7306 0.3869,1.029 0.5803,2.1155 0.5803,3.2607 0,1.1483 -0.1934,2.2359 -0.5803,3.2629 -0.4252,1.0273 -1.006,1.9361 -1.7799,2.7275 -0.7738,0.7912 -1.7025,1.4077 -2.7856,1.8491 -1.0445,0.4413 -2.2442,0.6627 -3.5209,0.6627 -1.3153,0 -2.4763,-0.2214 -3.5594,-0.6627 -1.0834,-0.4414 -2.0121,-1.0557 -2.7859,-1.8437 -0.7351,-0.7875 -1.3153,-1.6977 -1.7408,-2.73 -0.3869,-1.0324 -0.6191,-2.1212 -0.6191,-3.2658 0,-1.1418 0.2322,-2.2306 0.6191,-3.2664 z m 1.5474,5.9964 c 0.3096,0.866 0.7739,1.6365 1.393,2.312 0.6191,0.6752 1.3929,1.2069 2.2439,1.5939 0.8898,0.3872 1.8572,0.5805 2.9018,0.5805 1.0446,0 2.012,-0.1913 2.9018,-0.5746 0.8513,-0.3835 1.6249,-0.9116 2.2054,-1.5834 0.6191,-0.671 1.122,-1.442 1.4315,-2.3119 0.3095,-0.8697 0.5029,-1.7856 0.5029,-2.7465 0,-0.9579 -0.1934,-1.8717 -0.5029,-2.742 -0.3095,-0.8697 -0.8124,-1.6424 -1.4315,-2.3173 -0.6191,-0.6755 -1.3541,-1.205 -2.2054,-1.5883 -0.8898,-0.3835 -1.8572,-0.5757 -2.9018,-0.5757 -1.0446,0 -2.012,0.1933 -2.9018,0.5789 -0.851,0.3849 -1.5863,0.919 -2.2054,1.6018 -0.6576,0.6826 -1.1219,1.4553 -1.4315,2.3179 -0.3481,0.8623 -0.5028,1.7705 -0.5028,2.7247 0,0.9533 0.1547,1.864 0.5028,2.73 z m 20.738,-4.7151 c 0,-0.9652 -0.0774,-1.7941 -0.1547,-2.4874 -0.116,-0.6923 -0.387,-1.2668 -0.7739,-1.7229 -0.4255,-0.4567 -1.0057,-0.6849 -1.8181,-0.6849 -0.1163,0 -0.387,0.0372 -0.8513,0.1117 l 0,-1.279 c 0.5417,-0.0935 0.9672,-0.1406 1.2379,-0.1406 0.8124,0 1.4703,0.1537 2.012,0.4606 0.5029,0.3068 0.8898,0.7348 1.1608,1.2847 0.3096,0.5499 0.4643,1.1928 0.5803,1.9278 0.1162,0.7354 0.1547,1.6039 0.1547,2.6068 l 0,8.6646 5.8422,0 0,-14.8039 1.5478,0 0,16.0892 -8.9377,0 0,-10.0267 z"
         style="fill:#399068;fill-opacity:1;fill-rule:nonzero;stroke:none"
         id="path4156" />
      <g
         id="g4158"
         transform="scale(0.32654,0.32654)">
        <path
           d="m 111.6598,7.1289 c 6.0418,0 11.0186,1.1534 15.0472,3.4628 4.028,2.3071 7.1087,5.3367 9.0045,9.0827 1.8961,3.7457 2.844,7.7789 2.844,12.0991 0,4.2157 -0.9479,8.2001 -2.844,11.952 -1.8958,3.752 -4.9765,6.8023 -9.0045,9.1506 -4.0286,2.3507 -9.0054,3.5243 -15.0472,3.5243 l -12.2051,0 0,-49.2715 12.2051,0 z m -7.4645,45.3356 6.9906,0 c 3.0807,0 6.0417,-0.4374 8.7675,-1.3142 2.6068,-0.8767 4.9768,-2.1886 7.1096,-3.9359 2.014,-1.7475 3.5546,-3.9177 4.7395,-6.5134 1.1852,-2.5946 1.6583,-5.5721 1.6583,-8.9275 0,-3.5988 -0.7101,-6.9601 -2.1322,-10.0887 -1.4219,-3.1286 -3.7917,-5.6798 -7.1093,-7.6556 -3.3171,-1.9766 -7.7026,-2.9644 -13.0334,-2.9644 l -6.9906,0 0,41.3997 z m 72.275,-45.3356 0,3.9359 -21.5646,0 0,21.6864 20.8537,0 0,3.9376 -20.8537,0 0,15.7757 21.5646,0 0,3.9359 -26.3035,0 0,-49.2715 26.3035,0 z m 44.1955,4.4158 c -3.0807,-1.2615 -6.1605,-1.8916 -9.3611,-1.8916 -3.5549,0 -6.99,0.9437 -10.0698,2.8273 -3.2006,1.8856 -5.6877,4.509 -7.5835,7.8726 -1.8958,3.3622 -2.7258,7.1697 -2.7258,11.4205 0,2.8537 0.4739,5.6044 1.4218,8.2574 1.067,2.6529 2.4889,5.0244 4.2659,7.1158 1.895,2.0902 4.0277,3.7343 6.6348,4.9323 2.4885,1.1962 5.2143,1.7943 8.0566,1.7943 6.7544,0 12.6791,-2.5146 17.8917,-7.5444 l 0,5.5695 c -2.9628,2.2207 -5.8065,3.7633 -8.7675,4.621 -2.9628,0.8592 -6.0435,1.2918 -9.2416,1.2918 -3.6737,0 -7.1095,-0.6826 -10.3093,-2.0463 -3.0798,-1.3638 -5.8048,-3.2596 -8.0566,-5.6895 -2.2507,-2.4278 -4.0286,-5.2222 -5.2135,-8.3778 -1.1849,-3.1563 -1.7762,-6.4647 -1.7762,-9.9241 0,-3.9069 0.5913,-7.4741 2.0132,-10.6982 1.3045,-3.2275 3.1997,-5.9879 5.5695,-8.284 2.3698,-2.296 5.0939,-4.0507 8.1745,-5.2596 3.081,-1.2085 6.2808,-1.8128 9.5984,-1.8128 6.8718,0 12.9144,1.9256 18.0091,5.7736 l 0,5.4839 c -2.6059,-2.3613 -5.4496,-4.1712 -8.5306,-5.4317 z m 22.868,-4.4158 0,25.143 28.3175,0 0,-25.143 4.8577,0 0,49.2715 -4.8577,0 0,-20.1935 -28.3175,0 0,20.1935 -4.7407,0 0,-49.2715 4.7407,0 z m 46.5644,14.6417 c 1.3028,-3.1745 3.0798,-5.9638 5.3308,-8.3701 2.3698,-2.4063 5.2135,-4.2874 8.5315,-5.6449 3.3168,-1.357 6.9905,-2.0367 10.9003,-2.0367 3.9098,0 7.4648,0.6797 10.7824,2.0367 3.3169,1.3575 6.1609,3.2465 8.5306,5.6701 2.3698,2.4239 4.1485,5.2112 5.4508,8.3625 1.1848,3.151 1.7767,6.4783 1.7767,9.9853 0,3.5167 -0.5919,6.8477 -1.7767,9.9927 -1.3023,3.1459 -3.081,5.929 -5.4508,8.3526 -2.3697,2.4231 -5.2137,4.3109 -8.5306,5.6628 -3.1989,1.3515 -6.8726,2.0296 -10.7824,2.0296 -4.0277,0 -7.5835,-0.6781 -10.9003,-2.0296 -3.318,-1.3519 -6.1617,-3.2329 -8.5315,-5.6461 -2.251,-2.4117 -4.028,-5.199 -5.3308,-8.3605 -1.1849,-3.1617 -1.8958,-6.4959 -1.8958,-10.0015 0,-3.4965 0.7109,-6.8309 1.8958,-10.0029 z m 4.7387,18.3637 c 0.9479,2.6518 2.37,5.0114 4.2658,7.0801 1.8959,2.0676 4.2656,3.6961 6.8718,4.8813 2.7246,1.1857 5.6874,1.7776 8.8863,1.7776 3.1989,0 6.1617,-0.5859 8.8866,-1.7595 2.6068,-1.1747 4.9757,-2.7918 6.7536,-4.8492 1.8958,-2.0546 3.4359,-4.4158 4.3838,-7.0801 0.9479,-2.6631 1.54,-5.468 1.54,-8.411 0,-2.933 -0.5921,-5.7319 -1.54,-8.3967 -0.9479,-2.6635 -2.488,-5.0298 -4.3838,-7.0966 -1.8958,-2.0687 -4.1468,-3.6904 -6.7536,-4.8639 -2.7249,-1.1747 -5.6877,-1.7632 -8.8866,-1.7632 -3.1989,0 -6.1617,0.5922 -8.8863,1.7725 -2.6062,1.1789 -4.8577,2.8145 -6.7538,4.9056 -2.0138,2.0903 -3.4359,4.457 -4.3838,7.0986 -1.0658,2.6404 -1.5398,5.4218 -1.5398,8.3437 0,2.9194 0.474,5.7087 1.5398,8.3608 z m 63.5077,-14.4399 c 0,-2.9557 -0.237,-5.4941 -0.474,-7.6173 -0.3552,-2.12 -1.1849,-3.8795 -2.3697,-5.2764 -1.3031,-1.3983 -3.0802,-2.0971 -5.5679,-2.0971 -0.356,0 -1.1851,0.1137 -2.607,0.3419 l 0,-3.9166 c 1.6589,-0.2866 2.9619,-0.4306 3.7911,-0.4306 2.4877,0 4.5025,0.4702 6.1614,1.4105 1.54,0.9394 2.7249,2.2501 3.5549,3.9342 0.9479,1.6841 1.4218,3.653 1.777,5.9037 0.3558,2.2519 0.474,4.9116 0.474,7.9829 l 0,26.5349 17.8908,0 0,-45.3356 4.7399,0 0,49.2715 -27.3705,0 0,-30.706 z"
           style="fill:none;stroke:#399068;stroke-width:2.77063036;stroke-linecap:butt;stroke-linejoin:miter;stroke-miterlimit:10.22000027;stroke-dasharray:none;stroke-opacity:1"
           id="path4160" />
      </g>
      <path
         d="m 149.2053,3.7698 c -1.0058,-0.4119 -2.0118,-0.6177 -3.0561,-0.6177 -1.1608,0 -2.283,0.3082 -3.289,0.9238 -1.0443,0.6152 -1.8573,1.4718 -2.4764,2.5702 -0.5799,1.0979 -0.8895,2.3411 -0.8895,3.729 0,0.932 0.1548,1.8303 0.4641,2.6966 0.3483,0.8663 0.8124,1.6407 1.3932,2.3235 0.6188,0.6826 1.3155,1.2192 2.1665,1.6101 0.8124,0.3912 1.7025,0.5865 2.6694,0.5865 2.1668,0 4.1403,-0.8212 5.8036,-2.4633 l 0,1.8184 c -0.9671,0.7251 -1.8955,1.2288 -2.8632,1.5089 -0.9666,0.2806 -1.9729,0.4215 -3.0178,0.4215 -1.199,0 -2.3213,-0.2225 -3.3658,-0.6678 -1.0058,-0.4456 -1.8961,-1.0644 -2.6309,-1.8581 -0.7353,-0.7926 -1.3158,-1.7051 -1.7025,-2.7355 -0.3869,-1.0309 -0.5805,-2.1109 -0.5805,-3.2408 0,-1.2756 0.1936,-2.4404 0.6579,-3.4931 0.4255,-1.054 1.0446,-1.9554 1.8184,-2.7051 0.7739,-0.7498 1.6637,-1.3227 2.6697,-1.7176 1.006,-0.3948 2.0506,-0.5918 3.1337,-0.5918 2.2442,0 4.2177,0.6287 5.881,1.8853 l 0,1.7903 c -0.8512,-0.7707 -1.7798,-1.3617 -2.7858,-1.7733 z m 6.2294,3.3392 c 0.4255,-1.0366 1.006,-1.9477 1.7801,-2.7332 0.7348,-0.7857 1.6631,-1.4003 2.7468,-1.843 1.0831,-0.4434 2.2827,-0.6653 3.5592,-0.6653 1.277,0 2.4763,0.2219 3.5212,0.6653 1.0834,0.4427 2.0117,1.0604 2.7856,1.8518 0.7741,0.7909 1.3541,1.7011 1.7799,2.7301 0.3869,1.029 0.6191,2.1155 0.6191,3.2604 0,1.1486 -0.2322,2.2365 -0.6191,3.2632 -0.4258,1.027 -1.0058,1.9361 -1.7799,2.7272 -0.7739,0.7915 -1.7022,1.408 -2.7473,1.8494 -1.0832,0.4413 -2.244,0.6624 -3.5595,0.6624 -1.2765,0 -2.4761,-0.2211 -3.5592,-0.6624 -1.0837,-0.4414 -2.012,-1.0557 -2.7468,-1.8437 -0.7741,-0.7875 -1.3546,-1.6971 -1.7801,-2.73 -0.3867,-1.0324 -0.6188,-2.1212 -0.6188,-3.2661 0,-1.1415 0.2321,-2.2303 0.6188,-3.2661 z m 1.5477,5.9961 c 0.3095,0.8663 0.8121,1.637 1.4312,2.3123 0.6191,0.6755 1.3547,1.2067 2.2442,1.5942 0.8512,0.3869 1.8187,0.5802 2.863,0.5802 1.0451,0 2.012,-0.1913 2.9021,-0.5746 0.8512,-0.3838 1.6254,-0.9116 2.2439,-1.5834 0.6194,-0.6707 1.0837,-1.442 1.3935,-2.3117 0.3475,-0.8699 0.5023,-1.7858 0.5023,-2.747 0,-0.9576 -0.1548,-1.8717 -0.5023,-2.7414 -0.3098,-0.87 -0.7741,-1.6427 -1.3935,-2.3179 -0.6185,-0.6749 -1.3927,-1.2047 -2.2439,-1.588 -0.8901,-0.3832 -1.857,-0.5757 -2.9021,-0.5757 -1.0443,0 -2.0118,0.1936 -2.863,0.5786 -0.8895,0.3855 -1.6251,0.9193 -2.2442,1.6021 -0.6191,0.6826 -1.1217,1.4553 -1.4312,2.3179 -0.3484,0.8623 -0.5032,1.77 -0.5032,2.7244 0,0.9538 0.1548,1.8643 0.5032,2.73 z m 28.1667,-10.7776 0,2.2564 0.6577,0 c 1.5865,0 2.9018,0.2633 4.0235,0.79 1.0837,0.5281 1.9346,1.2671 2.5151,2.2195 0.58,0.9514 0.8513,2.0401 0.8513,3.267 0,1.006 -0.1936,1.9029 -0.5417,2.6901 -0.3869,0.7866 -0.8901,1.4465 -1.5866,1.9771 -0.6573,0.531 -1.4312,0.9312 -2.3213,1.1999 -0.9286,0.2699 -1.8955,0.4042 -2.9403,0.4042 l -0.6577,0 0,1.9304 -1.5477,0 0,-1.9304 -0.6965,0 c -1.5865,0 -2.94,-0.2746 -4.0626,-0.8243 -1.0834,-0.5499 -1.9346,-1.2977 -2.476,-2.2439 -0.5417,-0.9462 -0.8124,-2.0063 -0.8124,-3.1807 0,-1.0505 0.2321,-2.0526 0.735,-3.0067 0.4643,-0.9536 1.277,-1.7363 2.3607,-2.3477 1.1214,-0.6111 2.514,-0.917 4.2553,-0.917 l 0.6965,0 0,-2.2839 1.5477,0 z m -5.1071,4.0714 c -0.9284,0.324 -1.6251,0.849 -2.128,1.5755 -0.4646,0.7263 -0.6965,1.6883 -0.6965,2.886 0,1.4 0.4255,2.5736 1.3153,3.5209 0.9286,0.9473 2.5926,1.4355 5.0686,1.4655 l 0,-9.9779 c -1.4318,0.03 -2.5923,0.2066 -3.5594,0.53 z m 11.4908,4.4615 c 0,-1.2013 -0.2319,-2.1648 -0.6965,-2.8888 -0.5026,-0.7245 -1.1991,-1.2487 -2.1668,-1.5727 -0.9284,-0.3234 -2.0889,-0.5 -3.5204,-0.53 l 0,9.9779 c 4.256,-0.0598 6.3837,-1.722 6.3837,-4.9864 z m 9.8274,-8.5329 0,14.8042 4.2948,0 0,1.2856 -10.1759,0 0,-1.2856 4.3334,0 0,-14.8042 1.5477,0 z"
         style="fill:#399068;fill-opacity:1;fill-rule:nonzero;stroke:none"
         id="path4162" />
      <g
         id="g4164"
         transform="scale(0.32654,0.32654)">
        <path
           d="m 456.9233,11.5447 c -3.0798,-1.2615 -6.1608,-1.8916 -9.3588,-1.8916 -3.5547,0 -6.9914,0.9437 -10.0721,2.829 -3.198,1.8839 -5.6877,4.5073 -7.5835,7.8709 -1.7762,3.3622 -2.7241,7.1697 -2.7241,11.4197 0,2.8545 0.4739,5.6052 1.421,8.2582 1.067,2.6529 2.488,5.0244 4.2667,7.1158 1.895,2.0902 4.0286,3.7335 6.6345,4.9306 2.488,1.1979 5.2138,1.796 8.1748,1.796 6.6356,0 12.6791,-2.5146 17.773,-7.5436 l 0,5.5687 c -2.9619,2.2207 -5.8048,3.7633 -8.7684,4.621 -2.9603,0.8592 -6.0418,1.2906 -9.2415,1.2906 -3.672,0 -7.1088,-0.6814 -10.3077,-2.0451 -3.0798,-1.3646 -5.8065,-3.2596 -8.0566,-5.6903 -2.2518,-2.427 -4.0295,-5.2214 -5.2135,-8.377 -1.1851,-3.1572 -1.7779,-6.4647 -1.7779,-9.9249 0,-3.9061 0.5928,-7.4733 2.0149,-10.6974 1.3028,-3.2275 3.1986,-5.9879 5.5687,-8.284 2.3697,-2.296 5.0947,-4.0507 8.1754,-5.2596 3.0809,-1.2093 6.2798,-1.8128 9.5967,-1.8128 6.8725,0 12.916,1.9256 18.0099,5.7736 l 0,5.4831 c -2.6068,-2.3605 -5.4508,-4.1704 -8.5315,-5.4309 z m 19.0769,10.2259 c 1.3031,-3.1745 3.0807,-5.9646 5.4516,-8.3701 2.2499,-2.4063 5.093,-4.2882 8.4115,-5.6441 3.3169,-1.3578 6.9906,-2.0375 10.8995,-2.0375 3.9107,0 7.5836,0.6797 10.7833,2.0375 3.318,1.3559 6.1608,3.2474 8.5306,5.671 2.3709,2.4222 4.1468,5.2095 5.4507,8.3608 1.1849,3.151 1.8958,6.4783 1.8958,9.9845 0,3.5175 -0.7109,6.8493 -1.8958,9.9935 -1.3039,3.1451 -3.0798,5.929 -5.4507,8.3518 -2.3698,2.4239 -5.2126,4.3117 -8.4132,5.6636 -3.3171,1.3515 -6.8718,2.0284 -10.9007,2.0284 -3.9089,0 -7.5826,-0.6769 -10.8995,-2.0284 -3.3185,-1.3519 -6.1616,-3.2329 -8.4115,-5.6461 -2.3709,-2.4117 -4.1485,-5.1973 -5.4516,-8.3605 -1.184,-3.1617 -1.8949,-6.4959 -1.8949,-10.0023 0,-3.4957 0.7109,-6.8301 1.8949,-10.0021 z m 4.7398,18.3629 c 0.9479,2.6526 2.4869,5.0131 4.3827,7.0809 1.8961,2.0685 4.1488,3.6953 6.8726,4.8821 2.607,1.1849 5.5698,1.7768 8.7675,1.7768 3.2006,0 6.1617,-0.5859 8.8875,-1.7595 2.6067,-1.1755 4.9776,-2.7918 6.8717,-4.8492 1.8967,-2.0537 3.3186,-4.4158 4.2676,-7.0792 1.0641,-2.664 1.5381,-5.4689 1.5381,-8.4127 0,-2.9322 -0.474,-5.7319 -1.5381,-8.3951 -0.949,-2.6643 -2.3709,-5.0306 -4.2676,-7.0985 -1.8941,-2.0668 -4.265,-3.6893 -6.8717,-4.8628 -2.7258,-1.1739 -5.6869,-1.7632 -8.8875,-1.7632 -3.1977,0 -6.1605,0.593 -8.7675,1.7717 -2.7238,1.1806 -4.9765,2.8153 -6.8726,4.9064 -1.8958,2.0903 -3.4348,4.457 -4.3827,7.0986 -1.0669,2.6404 -1.5409,5.4201 -1.5409,8.3429 0,2.9211 0.474,5.7095 1.5409,8.3608 z m 86.2572,-33.0058 0,6.91 2.014,0 c 4.8586,0 8.8863,0.8065 12.3213,2.4194 3.3188,1.6175 5.9247,3.8803 7.7026,6.7972 1.7759,2.9132 2.6068,6.2476 2.6068,10.0046 0,3.081 -0.593,5.8275 -1.6589,8.2383 -1.1849,2.4089 -2.7258,4.4297 -4.8586,6.0548 -2.0131,1.626 -4.3829,2.8517 -7.1087,3.6746 -2.844,0.8266 -5.8048,1.2379 -9.0045,1.2379 l -2.014,0 0,5.9116 -4.7398,0 0,-5.9116 -2.1328,0 c -4.8586,0 -9.0037,-0.8411 -12.4413,-2.5243 -3.3177,-1.684 -5.9247,-3.9742 -7.5827,-6.8717 -1.6588,-2.8979 -2.4879,-6.1444 -2.4879,-9.741 0,-3.217 0.7112,-6.2858 2.251,-9.2078 1.4218,-2.9202 3.9106,-5.3169 7.2294,-7.1895 3.4339,-1.8714 7.6989,-2.8083 13.0315,-2.8083 l 2.1328,0 0,-6.9942 4.7398,0 z M 551.357,19.5962 c -2.8429,0.9921 -4.9765,2.5999 -6.5166,4.8248 -1.4227,2.2241 -2.1327,5.1704 -2.1327,8.8379 0,4.2877 1.3028,7.8814 4.0277,10.7827 2.8437,2.901 7.9396,4.396 15.522,4.4878 l 0,-30.5566 c -4.3847,0.0921 -7.9385,0.633 -10.9004,1.6234 z m 35.1893,13.6627 c 0,-3.6788 -0.7101,-6.6294 -2.1328,-8.8466 -1.5392,-2.2187 -3.672,-3.824 -6.6356,-4.8161 -2.8432,-0.9904 -6.397,-1.5313 -10.7807,-1.6234 l 0,30.5566 c 13.0334,-0.1831 19.5491,-5.2736 19.5491,-15.2705 z m 30.0954,-26.1312 0,45.3368 13.1522,0 0,3.9367 -31.1624,0 0,-3.9367 13.2704,0 0,-45.3368 4.7398,0 z"
           style="fill:none;stroke:#399068;stroke-width:2.77136946;stroke-linecap:butt;stroke-linejoin:miter;stroke-miterlimit:10.22000027;stroke-dasharray:none;stroke-opacity:1"
           id="path4166" />
      </g>
    </g>
  </g>
</svg>
