<?xml version="1.0" encoding="UTF-8" standalone="no"?>
<!-- Generator: Adobe Illustrator 19.0.0, SVG Export Plug-In . SVG Version: 6.00 Build 0)  -->

<svg
   xmlns:dc="http://purl.org/dc/elements/1.1/"
   xmlns:cc="http://creativecommons.org/ns#"
   xmlns:rdf="http://www.w3.org/1999/02/22-rdf-syntax-ns#"
   xmlns:svg="http://www.w3.org/2000/svg"
   xmlns="http://www.w3.org/2000/svg"
   xmlns:sodipodi="http://sodipodi.sourceforge.net/DTD/sodipodi-0.dtd"
   xmlns:inkscape="http://www.inkscape.org/namespaces/inkscape"
   version="1.1"
   id="Layer_1"
   x="0px"
   y="0px"
   viewBox="0 0 34.495133 20"
   xml:space="preserve"
   inkscape:version="0.91 r13725"
   sodipodi:docname="muted.svg"
   width="34.495132"
   height="20"><metadata
     id="metadata55"><rdf:RDF><cc:Work
         rdf:about=""><dc:format>image/svg+xml</dc:format><dc:type
           rdf:resource="http://purl.org/dc/dcmitype/StillImage" /><dc:title></dc:title></cc:Work></rdf:RDF></metadata><defs
     id="defs53" /><sodipodi:namedview
     pagecolor="#ffffff"
     bordercolor="#666666"
     borderopacity="1"
     objecttolerance="10"
     gridtolerance="10"
     guidetolerance="10"
     inkscape:pageopacity="0"
     inkscape:pageshadow="2"
     inkscape:window-width="1776"
     inkscape:window-height="933"
     id="namedview51"
     showgrid="false"
     fit-margin-top="0"
     fit-margin-left="0"
     fit-margin-right="0"
     fit-margin-bottom="0"
     inkscape:zoom="1.84375"
     inkscape:cx="83.095947"
     inkscape:cy="44.071078"
     inkscape:window-x="0"
     inkscape:window-y="0"
     inkscape:window-maximized="0"
     inkscape:current-layer="Layer_1" /><g
     id="g3"
     style="fill:#2ab17d;fill-opacity:1"
     transform="matrix(0.06737327,0,0,0.06737327,0,-7.2475496)"><g
       id="g5"
       style="fill:#2ab17d;fill-opacity:1"><path
         d="m 453.666,251.642 50.055,-50.055 c 11.039,-11.04 11.039,-28.939 0,-39.978 -11.04,-11.04 -28.938,-11.04 -39.978,0 l -50.055,50.055 -50.055,-50.055 c -11.039,-11.038 -28.939,-11.038 -39.978,0 -11.039,11.039 -11.039,28.938 0,39.978 l 50.055,50.055 -50.055,50.055 c -11.039,11.04 -11.039,28.939 0,39.978 11.039,11.039 28.938,11.04 39.978,0 l 50.055,-50.055 50.055,50.055 c 11.039,11.039 28.938,11.04 39.978,0 11.039,-11.039 11.039,-28.938 0,-39.978 l -50.055,-50.055 z"
         id="path7"
         style="fill:#2ab17d;fill-opacity:1"
         inkscape:connector-curvature="0" /></g></g><g
     id="g9"
     style="fill:#2ab17d;fill-opacity:1"
     transform="matrix(0.06737327,0,0,0.06737327,0,-7.2475496)"><g
       id="g11"
       style="fill:#2ab17d;fill-opacity:1"><path
         d="m 231.648,109.542 -97.114,51.088 c 0.135,1.384 0.084,-10.703 0.084,190.786 l 97.03,51.045 c 11.243,5.912 24.858,-2.213 24.858,-15.011 l 0,-262.896 c 0,-12.748 -13.578,-20.947 -24.858,-15.012 z"
         id="path13"
         style="fill:#2ab17d;fill-opacity:1"
         inkscape:connector-curvature="0" /></g></g><g
     id="g15"
     style="fill:#2ab17d;fill-opacity:1"
     transform="matrix(0.06737327,0,0,0.06737327,0,-7.2475496)"><g
       id="g17"
       style="fill:#2ab17d;fill-opacity:1"><path
         d="m 86.83,168.954 -69.869,0 C 7.594,168.954 0,176.548 0,185.916 l 0,140.171 c 0,9.367 7.594,16.961 16.961,16.961 l 69.869,0 c 9.43,0 16.961,-7.7 16.961,-16.961 l 0,-140.171 c -10e-4,-9.27 -7.539,-16.962 -16.961,-16.962 z"
         id="path19"
         style="fill:#2ab17d;fill-opacity:1"
         inkscape:connector-curvature="0" /></g></g><g
     id="g21"
     transform="translate(0,-384.42669)" /><g
     id="g23"
     transform="translate(0,-384.42669)" /><g
     id="g25"
     transform="translate(0,-384.42669)" /><g
     id="g27"
     transform="translate(0,-384.42669)" /><g
     id="g29"
     transform="translate(0,-384.42669)" /><g
     id="g31"
     transform="translate(0,-384.42669)" /><g
     id="g33"
     transform="translate(0,-384.42669)" /><g
     id="g35"
     transform="translate(0,-384.42669)" /><g
     id="g37"
     transform="translate(0,-384.42669)" /><g
     id="g39"
     transform="translate(0,-384.42669)" /><g
     id="g41"
     transform="translate(0,-384.42669)" /><g
     id="g43"
     transform="translate(0,-384.42669)" /><g
     id="g45"
     transform="translate(0,-384.42669)" /><g
     id="g47"
     transform="translate(0,-384.42669)" /><g
     id="g49"
     transform="translate(0,-384.42669)" /></svg>