<svg xmlns="http://www.w3.org/2000/svg" viewBox="0 0 290.626 290.626"><path d="M248.335 188.334c-.394-7.163-1.941-14.152-4.505-20.902 27.839-15.075 46.795-44.55 46.795-78.37C290.626 39.952 250.674 0 201.563 0s-89.062 39.952-89.062 89.063c0 19.58 6.427 37.641 17.175 52.359-5.006 4.795-9.361 10.298-12.755 16.298a32.728 32.728 0 0 0-13.795-3.033c-11.489 0-22.083 6.061-27.994 15.731a61.188 61.188 0 0 0-14.194-1.669C27.339 168.75.001 196.088.001 229.688s27.337 60.938 60.937 60.938h178.125c28.43 0 51.562-23.133 51.562-51.563.001-25.224-17.905-46.346-42.29-50.729zm-84.272-99.271c0-14.306 2.822-26.606 6.923-37.041a113.936 113.936 0 0 0 25.889 4.083v28.27h-4.688v9.375h4.688v28.27a114.227 114.227 0 0 0-25.927 4.092c-4.077-10.429-6.885-22.725-6.885-37.049zm77.143 39.989c3.858-10.092 6.497-21.867 7.022-35.302h32.784c-1.022 17.461-7.603 33.45-18.117 46.12-3.614-2.409-11.11-6.9-21.689-10.818zm-34.955 34.621V131.4a103.696 103.696 0 0 1 21.961 3.417c-6.994 13.711-15.83 23.306-21.961 28.856zm0-41.653V93.75h32.602c-.539 12.305-3.07 23.095-6.708 32.353a114.204 114.204 0 0 0-25.894-4.083zm0-107.601c6.145 5.531 15.009 15.127 22.012 28.898a104.187 104.187 0 0 1-22.012 3.412v-32.31zm0 41.686a114.227 114.227 0 0 0 25.927-4.092c3.623 9.253 6.136 20.048 6.675 32.363h-32.602V56.105zm41.981 28.27c-.525-13.439-3.164-25.214-7.022-35.302 10.575-3.919 18.075-8.409 21.689-10.819 10.514 12.67 17.095 28.659 18.117 46.12l-32.784.001zM237.446 40.43c-6.478-13.28-14.63-23.109-21.3-29.658 15.413 2.864 29.245 10.172 40.181 20.55-3.623 2.278-10.115 5.906-18.881 9.108zm-40.57-25.978v32.273a103.696 103.696 0 0 1-21.961-3.417c6.994-13.711 15.83-23.306 21.961-28.856zm-31.181 25.954c-8.752-3.202-15.253-6.82-18.886-9.094 10.931-10.373 24.764-17.677 40.172-20.541-6.661 6.545-14.808 16.37-21.286 29.635zm31.181 90.989v32.311c-6.145-5.531-15.009-15.127-22.012-28.898a104.164 104.164 0 0 1 22.012-3.413zm-9.895 35.958c-15.413-2.864-29.245-10.172-40.181-20.55 3.619-2.278 10.116-5.902 18.881-9.108 6.482 13.28 14.634 23.11 21.3 29.658zm50.451-29.634c8.752 3.202 15.253 6.82 18.886 9.094-10.931 10.373-24.764 17.677-40.172 20.541 6.661-6.545 14.808-16.37 21.286-29.635zm-97.2-99.464c3.614 2.409 11.114 6.9 21.689 10.819-4.308 11.269-7.233 24.539-7.233 39.989 0 15.45 2.925 28.72 7.233 39.989-10.575 3.919-18.075 8.409-21.689 10.819-11.456-13.8-18.356-31.509-18.356-50.808s6.9-37.008 18.356-50.808zm98.831 242.995H60.939c-28.43 0-51.562-23.133-51.562-51.563 0-28.43 23.133-51.563 51.562-51.563 5.166 0 10.275.769 15.192 2.283l3.947 1.214 1.702-3.764c3.797-8.381 12.173-13.795 21.347-13.795a23.31 23.31 0 0 1 13.097 3.998l4.523 3.056 2.339-4.936c3.061-6.464 7.387-12.389 12.548-17.456 16.308 18.005 39.783 29.4 65.93 29.4 11.944 0 23.33-2.4 33.75-6.684 2.447 6.68 3.75 13.594 3.759 20.512l-.019 4.716 4.223.417c21.647 2.147 37.973 20.194 37.973 41.977.001 23.26-18.927 42.188-42.187 42.188z" fill="#fff"/><path d="M220.313 79.688V64.8c-4.144-2.414-8.916-3.862-14.062-3.862-10.406 0-19.467 5.662-24.333 14.063h-66.722a51.166 51.166 0 0 0-4.561-11.058l8.025-8.025-19.889-19.89-8.025 8.025a51.145 51.145 0 0 0-11.058-4.561V28.125H51.564v11.367a51.166 51.166 0 0 0-11.058 4.561l-8.025-8.025-19.889 19.889 8.025 8.025A51.115 51.115 0 0 0 16.056 75H4.689v28.125h11.367a51.166 51.166 0 0 0 4.561 11.058l-8.025 8.025 19.889 19.889 8.025-8.025a51.145 51.145 0 0 0 11.058 4.561V150h28.125v-11.367a51.166 51.166 0 0 0 11.058-4.561l8.025 8.025 19.889-19.889-8.025-8.025a51.145 51.145 0 0 0 4.561-11.058h66.722c4.866 8.4 13.927 14.063 24.333 14.063 5.147 0 9.919-1.448 14.062-3.862V98.438h-18.023l-5.414-9.375 5.414-9.375h18.022zm-138.281 37.79H49.22L32.814 89.063 49.22 60.647h32.812l16.406 28.416-16.406 28.415z" fill="#fab31a"/><path d="M84.737 121.875l19.116-32.813L84.737 56.25H46.515L27.4 89.063l19.116 32.813h38.221v-.001zm-32.813-56.25h27.403l13.697 23.438L79.328 112.5H51.924L38.228 89.063l13.696-23.438z" fill="#fff"/></svg>