<?xml version="1.0" encoding="UTF-8" standalone="no"?>
<!-- Generator: Adobe Illustrator 19.0.0, SVG Export Plug-In . SVG Version: 6.00 Build 0)  -->

<svg
   xmlns:dc="http://purl.org/dc/elements/1.1/"
   xmlns:cc="http://creativecommons.org/ns#"
   xmlns:rdf="http://www.w3.org/1999/02/22-rdf-syntax-ns#"
   xmlns:svg="http://www.w3.org/2000/svg"
   xmlns="http://www.w3.org/2000/svg"
   xmlns:sodipodi="http://sodipodi.sourceforge.net/DTD/sodipodi-0.dtd"
   xmlns:inkscape="http://www.inkscape.org/namespaces/inkscape"
   version="1.1"
   id="Layer_1"
   x="0px"
   y="0px"
   viewBox="0 0 290.626 290.626"
   style="enable-background:new 0 0 290.626 290.626;"
   xml:space="preserve"
   inkscape:version="0.91 r13725"
   sodipodi:docname="networking.svg"><metadata
     id="metadata47"><rdf:RDF><cc:Work
         rdf:about=""><dc:format>image/svg+xml</dc:format><dc:type
           rdf:resource="http://purl.org/dc/dcmitype/StillImage" /></cc:Work></rdf:RDF></metadata><defs
     id="defs45" /><sodipodi:namedview
     pagecolor="#ffffff"
     bordercolor="#666666"
     borderopacity="1"
     objecttolerance="10"
     gridtolerance="10"
     guidetolerance="10"
     inkscape:pageopacity="0"
     inkscape:pageshadow="2"
     inkscape:window-width="1920"
     inkscape:window-height="1017"
     id="namedview43"
     showgrid="false"
     inkscape:zoom="0.8120402"
     inkscape:cx="145.313"
     inkscape:cy="145.313"
     inkscape:window-x="-8"
     inkscape:window-y="-8"
     inkscape:window-maximized="1"
     inkscape:current-layer="Layer_1" /><path
     style="fill:#ffffff;fill-opacity:1"
     d="m 248.335,188.334 c -0.394,-7.163 -1.941,-14.152 -4.505,-20.902 27.839,-15.075 46.795,-44.55 46.795,-78.37 C 290.626,39.952 250.674,0 201.563,0 c -49.111,0 -89.062,39.952 -89.062,89.063 0,19.58 6.427,37.641 17.175,52.359 -5.006,4.795 -9.361,10.298 -12.755,16.298 -4.294,-1.992 -8.986,-3.033 -13.795,-3.033 -11.489,0 -22.083,6.061 -27.994,15.731 -4.641,-1.106 -9.398,-1.669 -14.194,-1.669 -33.599,0.001 -60.937,27.339 -60.937,60.939 0,33.6 27.337,60.938 60.937,60.938 l 178.125,0 c 28.43,0 51.562,-23.133 51.562,-51.563 10e-4,-25.224 -17.905,-46.346 -42.29,-50.729 z M 164.063,89.063 c 0,-14.306 2.822,-26.606 6.923,-37.041 7.589,2.119 16.294,3.684 25.889,4.083 l 0,28.27 -4.688,0 0,9.375 4.688,0 0,28.27 c -9.609,0.403 -18.328,1.969 -25.927,4.092 -4.077,-10.429 -6.885,-22.725 -6.885,-37.049 z m 77.143,39.989 c 3.858,-10.092 6.497,-21.867 7.022,-35.302 l 32.784,0 c -1.022,17.461 -7.603,33.45 -18.117,46.12 -3.614,-2.409 -11.11,-6.9 -21.689,-10.818 z m -34.955,34.621 0,-32.273 c 8.053,0.375 15.422,1.669 21.961,3.417 -6.994,13.711 -15.83,23.306 -21.961,28.856 z m 0,-41.653 0,-28.27 32.602,0 c -0.539,12.305 -3.07,23.095 -6.708,32.353 -7.589,-2.119 -16.299,-3.68 -25.894,-4.083 z m 0,-107.601 c 6.145,5.531 15.009,15.127 22.012,28.898 -6.544,1.744 -13.927,3.037 -22.012,3.412 l 0,-32.31 z m 0,41.686 c 9.609,-0.403 18.328,-1.969 25.927,-4.092 3.623,9.253 6.136,20.048 6.675,32.363 l -32.602,0 0,-28.271 z m 41.981,28.27 c -0.525,-13.439 -3.164,-25.214 -7.022,-35.302 10.575,-3.919 18.075,-8.409 21.689,-10.819 10.514,12.67 17.095,28.659 18.117,46.12 l -32.784,0.001 0,0 z M 237.446,40.43 c -6.478,-13.28 -14.63,-23.109 -21.3,-29.658 15.413,2.864 29.245,10.172 40.181,20.55 -3.623,2.278 -10.115,5.906 -18.881,9.108 z m -40.57,-25.978 0,32.273 c -8.053,-0.375 -15.422,-1.669 -21.961,-3.417 6.994,-13.711 15.83,-23.306 21.961,-28.856 z m -31.181,25.954 c -8.752,-3.202 -15.253,-6.82 -18.886,-9.094 10.931,-10.373 24.764,-17.677 40.172,-20.541 -6.661,6.545 -14.808,16.37 -21.286,29.635 z m 31.181,90.989 0,32.311 c -6.145,-5.531 -15.009,-15.127 -22.012,-28.898 6.543,-1.744 13.926,-3.038 22.012,-3.413 z m -9.895,35.958 c -15.413,-2.864 -29.245,-10.172 -40.181,-20.55 3.619,-2.278 10.116,-5.902 18.881,-9.108 6.482,13.28 14.634,23.11 21.3,29.658 z m 50.451,-29.634 c 8.752,3.202 15.253,6.82 18.886,9.094 -10.931,10.373 -24.764,17.677 -40.172,20.541 6.661,-6.545 14.808,-16.37 21.286,-29.635 z m -97.2,-99.464 c 3.614,2.409 11.114,6.9 21.689,10.819 -4.308,11.269 -7.233,24.539 -7.233,39.989 0,15.45 2.925,28.72 7.233,39.989 -10.575,3.919 -18.075,8.409 -21.689,10.819 -11.456,-13.8 -18.356,-31.509 -18.356,-50.808 0,-19.299 6.9,-37.008 18.356,-50.808 z m 98.831,242.995 -178.124,0 c -28.43,0 -51.562,-23.133 -51.562,-51.563 0,-28.43 23.133,-51.563 51.562,-51.563 5.166,0 10.275,0.769 15.192,2.283 l 3.947,1.214 1.702,-3.764 c 3.797,-8.381 12.173,-13.795 21.347,-13.795 4.697,0 9.225,1.383 13.097,3.998 l 4.523,3.056 2.339,-4.936 c 3.061,-6.464 7.387,-12.389 12.548,-17.456 16.308,18.005 39.783,29.4 65.93,29.4 11.944,0 23.33,-2.4 33.75,-6.684 2.447,6.68 3.75,13.594 3.759,20.512 l -0.019,4.716 4.223,0.417 c 21.647,2.147 37.973,20.194 37.973,41.977 10e-4,23.26 -18.927,42.188 -42.187,42.188 z"
     id="path7"
     inkscape:connector-curvature="0" /><path
     style="fill:#fab31a;fill-opacity:1"
     d="m 220.313,79.688 0,-14.888 c -4.144,-2.414 -8.916,-3.862 -14.062,-3.862 -10.406,0 -19.467,5.662 -24.333,14.063 l -55.355,0 -11.367,0 c -1.102,-3.891 -2.625,-7.598 -4.561,-11.058 l 8.025,-8.025 -19.889,-19.89 -8.025,8.025 C 87.287,42.117 83.579,40.594 79.688,39.492 l 0,-11.367 -28.124,0 0,11.367 c -3.891,1.102 -7.598,2.625 -11.058,4.561 l -8.025,-8.025 -19.889,19.889 8.025,8.025 c -1.936,3.46 -3.46,7.167 -4.561,11.058 l -11.367,0 0,28.125 11.367,0 c 1.102,3.891 2.625,7.598 4.561,11.058 l -8.025,8.025 19.889,19.889 8.025,-8.025 c 3.459,1.936 7.167,3.459 11.058,4.561 l 0,11.367 28.125,0 0,-11.367 c 3.891,-1.102 7.598,-2.625 11.058,-4.561 l 8.025,8.025 19.889,-19.889 -8.025,-8.025 c 1.936,-3.459 3.459,-7.167 4.561,-11.058 l 11.367,0 55.355,0 c 4.866,8.4 13.927,14.063 24.333,14.063 5.147,0 9.919,-1.448 14.062,-3.862 l 0,-14.888 -18.023,0 -5.414,-9.375 5.414,-9.375 18.022,0 z m -138.281,37.79 -32.812,0 -16.406,-28.415 16.406,-28.416 32.812,0 16.406,28.416 -16.406,28.415 z"
     id="path9"
     inkscape:connector-curvature="0" /><path
     style="fill:#ffffff;fill-opacity:1"
     d="M 84.737,121.875 103.853,89.062 84.737,56.25 l -38.222,0 -19.115,32.813 19.116,32.813 38.221,0 0,-0.001 z m -32.813,-56.25 27.403,0 13.697,23.438 -13.696,23.437 -27.404,0 L 38.228,89.063 51.924,65.625 Z"
     id="path11"
     inkscape:connector-curvature="0" /><g
     id="g13" /><g
     id="g15" /><g
     id="g17" /><g
     id="g19" /><g
     id="g21" /><g
     id="g23" /><g
     id="g25" /><g
     id="g27" /><g
     id="g29" /><g
     id="g31" /><g
     id="g33" /><g
     id="g35" /><g
     id="g37" /><g
     id="g39" /><g
     id="g41" /></svg>