<?xml version="1.0" encoding="UTF-8" standalone="no"?>
<!-- Generator: Adobe Illustrator 19.0.0, SVG Export Plug-In . SVG Version: 6.00 Build 0)  -->

<svg
   xmlns:dc="http://purl.org/dc/elements/1.1/"
   xmlns:cc="http://creativecommons.org/ns#"
   xmlns:rdf="http://www.w3.org/1999/02/22-rdf-syntax-ns#"
   xmlns:svg="http://www.w3.org/2000/svg"
   xmlns="http://www.w3.org/2000/svg"
   xmlns:sodipodi="http://sodipodi.sourceforge.net/DTD/sodipodi-0.dtd"
   xmlns:inkscape="http://www.inkscape.org/namespaces/inkscape"
   version="1.1"
   id="Layer_1"
   x="0px"
   y="0px"
   viewBox="0 0 295.239 295.239"
   style="enable-background:new 0 0 295.239 295.239;"
   xml:space="preserve"
   inkscape:version="0.91 r13725"
   sodipodi:docname="phone.svg"><metadata
     id="metadata51"><rdf:RDF><cc:Work
         rdf:about=""><dc:format>image/svg+xml</dc:format><dc:type
           rdf:resource="http://purl.org/dc/dcmitype/StillImage" /><dc:title></dc:title></cc:Work></rdf:RDF></metadata><defs
     id="defs49" /><sodipodi:namedview
     pagecolor="#ffffff"
     bordercolor="#666666"
     borderopacity="1"
     objecttolerance="10"
     gridtolerance="10"
     guidetolerance="10"
     inkscape:pageopacity="0"
     inkscape:pageshadow="2"
     inkscape:window-width="1920"
     inkscape:window-height="1017"
     id="namedview47"
     showgrid="false"
     inkscape:zoom="1.5987047"
     inkscape:cx="127.70114"
     inkscape:cy="99.571771"
     inkscape:window-x="-8"
     inkscape:window-y="-8"
     inkscape:window-maximized="1"
     inkscape:current-layer="Layer_1" /><g
     id="g17" /><g
     id="g19" /><g
     id="g21" /><g
     id="g23" /><g
     id="g25" /><g
     id="g27" /><g
     id="g29" /><g
     id="g31" /><g
     id="g33" /><g
     id="g35" /><g
     id="g37" /><g
     id="g39" /><g
     id="g41" /><g
     id="g43" /><g
     id="g45" /><g
     id="g4182"
     transform="matrix(0.3289306,-0.03432626,0.03975511,0.38095244,10.241465,84.073488)"
     style="fill:#ffffff;fill-opacity:1"><path
       id="path4184"
       d="M 492.557,400.56 392.234,300.238 c -11.976,-11.975 -31.458,-11.975 -43.435,0 l -26.088,26.088 c -8.174,8.174 -10.758,19.845 -7.773,30.241 l -9.843,9.843 c -0.003,0.003 -0.005,0.005 -0.008,0.008 -6.99,6.998 -50.523,-3.741 -103.145,-56.363 -52.614,-52.613 -63.356,-96.139 -56.366,-103.142 0,-0.002 0.002,-0.002 0.002,-0.002 l 9.852,-9.851 c 2.781,0.799 5.651,1.207 8.523,1.207 7.865,0 15.729,-2.993 21.718,-8.98 l 26.088,-26.088 c 11.975,-11.975 11.975,-31.458 0,-43.434 L 111.436,19.441 c -5.8,-5.8 -13.513,-8.994 -21.716,-8.994 -8.205,0 -15.915,3.196 -21.716,8.994 l -26.09,26.09 c -8.174,8.174 -10.758,19.846 -7.773,30.241 0,0 -8.344,8.424 -8.759,8.956 -27.753,30.849 -32.96,79.418 -14.561,137.487 18.017,56.857 56.857,117.088 109.367,169.595 52.508,52.508 112.739,91.348 169.596,109.367 22.84,7.237 44.207,10.823 63.61,10.823 31.813,0 58.337,-9.648 77.35,-28.66 l 5.474,-5.474 c 2.74,0.788 5.602,1.213 8.532,1.213 8.205,0 15.917,-3.196 21.716,-8.994 l 26.09,-26.09 c 11.975,-11.975 11.975,-31.459 0.001,-43.435 z M 89.72,41.157 190.044,141.482 163.97,167.584 c 0,0 -0.005,-0.005 -0.014,-0.014 L 163.581,167.195 113.794,117.408 63.631,67.247 89.72,41.157 Z m 319.309,420.466 c -0.002,0.002 -0.003,0.003 -0.005,0.005 -22.094,22.091 -61.146,25.74 -109.961,10.27 C 246.811,455.34 190.998,419.184 141.907,370.092 92.814,321 56.658,265.189 40.101,212.936 24.631,164.119 28.28,125.066 50.376,102.969 l 0.002,-0.002 2.77,-2.77 77.857,77.856 -7.141,7.141 c -0.005,0.005 -0.009,0.011 -0.015,0.017 -29.585,29.622 5.963,96.147 56.378,146.562 37.734,37.734 84.493,67.14 118.051,67.14 11.284,0 21.076,-3.325 28.528,-10.778 0.003,-0.003 0.005,-0.005 0.008,-0.008 l 7.133,-7.133 77.857,77.856 -2.775,2.773 z M 444.752,448.368 344.428,348.044 370.516,321.956 470.84,422.278 c 0,0 -26.079,26.099 -26.088,26.09 z"
       inkscape:connector-curvature="0"
       style="fill:#ffffff;fill-opacity:1" /></g><g
     id="g4204"
     transform="matrix(0.29385779,0,0,0.32199952,11.71765,114.29978)" /><g
     id="g4206"
     transform="matrix(0.29385779,0,0,0.32199952,11.71765,114.29978)" /><g
     id="g4208"
     transform="matrix(0.29385779,0,0,0.32199952,11.71765,114.29978)" /><g
     id="g4210"
     transform="matrix(0.29385779,0,0,0.32199952,11.71765,114.29978)" /><g
     id="g4212"
     transform="matrix(0.29385779,0,0,0.32199952,11.71765,114.29978)" /><g
     id="g4214"
     transform="matrix(0.29385779,0,0,0.32199952,11.71765,114.29978)" /><g
     id="g4216"
     transform="matrix(0.29385779,0,0,0.32199952,11.71765,114.29978)" /><g
     id="g4218"
     transform="matrix(0.29385779,0,0,0.32199952,11.71765,114.29978)" /><g
     id="g4220"
     transform="matrix(0.29385779,0,0,0.32199952,11.71765,114.29978)" /><g
     id="g4222"
     transform="matrix(0.29385779,0,0,0.32199952,11.71765,114.29978)" /><g
     id="g4224"
     transform="matrix(0.29385779,0,0,0.32199952,11.71765,114.29978)" /><g
     id="g4226"
     transform="matrix(0.29385779,0,0,0.32199952,11.71765,114.29978)" /><g
     id="g4228"
     transform="matrix(0.29385779,0,0,0.32199952,11.71765,114.29978)" /><g
     id="g4230"
     transform="matrix(0.29385779,0,0,0.32199952,11.71765,114.29978)" /><g
     id="g4232"
     transform="matrix(0.29385779,0,0,0.32199952,11.71765,114.29978)" /><rect
     style="opacity:0.98999999;fill:#fab31a;fill-opacity:1;stroke:none;stroke-width:5;stroke-linecap:round;stroke-linejoin:round;stroke-miterlimit:4;stroke-dasharray:none;stroke-opacity:1"
     id="rect4306"
     width="173.90381"
     height="98.204506"
     x="109.45057"
     y="31.275318"
     ry="20" /><path
     style="fill:#fab31a;fill-opacity:1;fill-rule:evenodd;stroke:none;stroke-width:1px;stroke-linecap:butt;stroke-linejoin:miter;stroke-opacity:1"
     d="m 180.91137,101.20351 -3.89306,65.8067 78.18829,-75.060765 z"
     id="path4310"
     inkscape:connector-curvature="0"
     sodipodi:nodetypes="cccc" /><rect
     style="opacity:0.98999999;fill:#ffffff;fill-opacity:1;stroke:none;stroke-width:5;stroke-linecap:round;stroke-linejoin:round;stroke-miterlimit:4;stroke-dasharray:none;stroke-opacity:1"
     id="rect4312"
     width="92.574944"
     height="8.1315832"
     x="165.75919"
     y="50.666031" /><rect
     y="69.431213"
     x="141.98994"
     height="8.1315832"
     width="116.9697"
     id="rect4314"
     style="opacity:0.98999999;fill:#ffffff;fill-opacity:1;stroke:none;stroke-width:5;stroke-linecap:round;stroke-linejoin:round;stroke-miterlimit:4;stroke-dasharray:none;stroke-opacity:1" /><rect
     style="opacity:0.98999999;fill:#ffffff;fill-opacity:1;stroke:none;stroke-width:5;stroke-linecap:round;stroke-linejoin:round;stroke-miterlimit:4;stroke-dasharray:none;stroke-opacity:1"
     id="rect4316"
     width="57.546585"
     height="8.1315832"
     x="200.78754"
     y="88.196396" /></svg>