<svg xmlns="http://www.w3.org/2000/svg" viewBox="-1.9617647657207442 -2.0117678174785567 204.0235356349571 204.0235356349571" preserveAspectRatio="xMidYMid meet" style="stroke-width: 1px;" fill="white">
    <g>
        <path d="M177.7 170.5c0 8.6-6.5 14.4-16.3 14.6v4c0 2.3-1.9 4.2-4.2 4.2-2.3 0-4.2-1.9-4.2-4.2v-5.5c-5.5-2.3-8.9-7-8.9-13.2 0-2.3 1.9-4.2 4.2-4.2 2.3 0 4.2 1.9 4.2 4.2 0 3.2 1.8 4.8 3.9 5.6.3-.1.5-.2.8-.2.9 0 1.8.4 2.5.9.5 0 .9.1 1.2.1 2.5 0 8.4-.6 8.4-6.3 0-3.6-1-4.3-8.3-7.9l-4-2c-7.2-3.6-12.9-6.4-12.9-15.3 0-7 4.6-12.3 11.5-14v-4.1c0-2.3 1.9-4.2 4.2-4.2s4.2 1.9 4.2 4.2v3.7c8.2 1.1 13.5 6.6 13.5 14.5 0 2.3-1.9 4.2-4.2 4.2s-4.2-1.9-4.2-4.2c0-5.8-5.8-6.4-8.2-6.4-2 0-8.4.5-8.4 6.4 0 3.5 1 4.3 8.3 7.9l4 2c7.2 3.4 12.9 6.2 12.9 15.2zM152.9 47.1c-1.6-1.6-4.3-1.6-5.9 0l-47 47-30.4-30.3c-1.6-1.6-4.3-1.6-5.9 0-1.6 1.6-1.6 4.3 0 5.9L97 103c.8.8 1.9 1.2 2.9 1.2s2.1-.4 2.9-1.2l50.1-50c1.6-1.6 1.6-4.3 0-5.9zM100 0C44.9 0 0 44.9 0 100s44.9 100 100 100c5 0 10-.4 14.9-1.1 2.3-.3 3.8-2.5 3.5-4.7-.3-2.3-2.5-3.9-4.7-3.5-4.5.7-9.1 1-13.7 1-50.5 0-91.7-41.1-91.7-91.7S49.4 8.3 100 8.3s91.7 41.1 91.7 91.7c0 5.5-.5 10.9-1.4 16.2-.4 2.3 1.1 4.4 3.4 4.8 2.3.4 4.4-1.1 4.8-3.4 1-5.8 1.6-11.7 1.6-17.7C200 44.9 155.1 0 100 0z"></path>
    </g>
</svg>