<svg xmlns="http://www.w3.org/2000/svg" viewBox="-0.8107812381258128 -1.860784312235367 203.92156862745097 203.92156862745097" preserveAspectRatio="xMidYMid meet" style="stroke-width: 1px;" fill="white">
    <g>
        <path d="M149.6 94.5L197 45.6c1.5-1.6 1.5-3.6 0-5.1L157.3 2.1c-1.1-1-2-1.1-3.1-1.1s-1.9.4-2.7 1.2L105 49.9 72.1 16.1c-.5-.5-1.2-1.1-2-1.3L6.8.4C5.4.1 4 .5 3 1.4c-1 1-1.4 2.4-1.1 3.7l14.7 64.7c.2.7.5 1.4 1.1 1.9l33.2 33.4-46.5 48.5c-1.5 1.6-1.5 4.1.1 5.7L44 198.5c.8.8 1.5 1.5 2.6 1.5s1.7-.3 3.1-1.5l45.8-47.7 39.1 40.3c5.6 5.7 12.8 9 19.8 9h.1c5.4 0 10.2-2.3 13.7-5.9l24.3-25.3c8.2-8.5 6.6-23.7-3.6-34.1l-39.3-40.3zm-35.2-43.4l17 16.9c.8.8 1.8 1.2 2.9 1.2 1 0 2-.4 2.8-1.2 1.6-1.6 1.6-4.1 0-5.7l-17-16.9s-.1 0-.1-.1l7.9-8.2 9 9.1c.8.8 1.9 1.2 2.9 1.2s2-.4 2.8-1.2c1.6-1.6 1.6-4.1 0-5.7l-9-9.1-.1-.1 7.8-8.1 17 17c.8.8 1.9 1.2 2.9 1.2s2-.4 2.8-1.2c1.6-1.6 1.6-4.1 0-5.7l-17-17.1 7.6-7.9 33.9 33.9-44.1 45.7L110.7 55l3.7-3.9zm-43-24.5l28 28.4 5.7 5.8 33.6 34.1 5.3 5.4 3.1 3.2-18.7 19.4-47.7-48.5-35.2-35.7c7.5-6.9 16.7-11.5 25.9-12.1zm-60.1-17L60 20.7c-17 5.6-32.1 21.2-37.5 38.6L11.3 9.6zm35.5 180.6L13 156.3l7.6-7.9 8.8 9c.8.8 1.9 1.2 2.9 1.2s2-.4 2.8-1.2c1.6-1.6 1.6-4.1.1-5.7l-9-9.2 7.7-8 16.9 16.9c.8.8 1.9 1.2 2.9 1.2s2-.4 2.8-1.2c1.6-1.6 1.6-4.1 0-5.7l-17-17 7.8-8 9.1 8.9c.8.8 1.8 1.2 2.9 1.2 1 0 2.1-.4 2.8-1.2 1.6-1.6 1.5-4.2 0-5.7l-9.1-9 3.7-3.8 33.7 34-43.6 45.1zm54.2-45.4l-5.2-5.3-33.6-34.1-5.7-5.8-27.9-28.3c.4-9.4 4.7-19 11.3-26.9l35.3 35.8 47.7 48.5-18.7 19.3-3.2-3.2zm8.8 9l42.9-44.6 12.7 12.9-42.9 44.6-12.7-12.9zm77 9.2l-24.3 25.5c-2.5 2.6-5.6 3.5-7.9 3.5h-.1c-4.8 0-10.1-2.8-14.1-6.8l-12.2-12.5 42.9-44.7 12 12.2c7.1 7.1 8.8 17.5 3.7 22.8z"></path>
    </g>
</svg>