<svg xmlns="http://www.w3.org/2000/svg" viewBox="-2.010779586492802 -1.960784164129521 203.92155306946998 203.92155306946998" preserveAspectRatio="xMidYMid meet" style="stroke-width: 1px;" fill="white">
    <g>
        <path d="M100 0C44.9 0 0 44.9 0 100c0 28.8 12.4 56.2 34.1 75.2 1.7 1.5 4.4 1.3 5.9-.4 1.5-1.7 1.3-4.4-.4-5.9A91.5 91.5 0 0 1 8.3 100C8.3 49.5 49.5 8.3 100 8.3s91.7 41.1 91.7 91.7-41.1 91.7-91.7 91.7c-12.4 0-20.3-2.3-22.8-6.6-3.2-5.4 1.8-15.1 5.7-22.3l2.3 1c2.3 1 4.8 1.5 7.1 1.5 6.8 0 13.4-4 16.3-10.6l3.7-8.3c4-9-.1-19.5-9.1-23.5l-12.5-5.5c-1.3-.6-2.6-3.4-2.6-8.5.1-5.9 1.9-13.4 5.1-20.5 5.4-12.2 12.4-19.4 17.1-21.2.8-.3 1.9-.6 2.7-.2l12.5 5.5c9 4 19.5-.1 23.4-9.1l3.7-8.3c4-9-.1-19.5-9.1-23.4l-12.4-5.5C112.7 18.1 85.4 40.7 69 77.7c-16.4 37.1-14.8 72.5 3.7 80.6l2.5 1.1c-5 9.1-10.7 20.7-5.3 29.9 4.2 7.2 14 10.7 30 10.7 55.1 0 100-44.9 100-100S155.1 0 100 0zM76.7 81.1c13.6-30.8 33.4-48.2 46.3-48.2 1.7 0 3.3.3 4.8 1l12.4 5.5c4.8 2.1 6.9 7.7 4.8 12.5l-3.7 8.3c-2.1 4.8-7.7 6.9-12.5 4.8l-12.4-5.5c-2.7-1.2-5.9-1.2-9.1.1-7.7 3-16 12.8-21.7 25.6-3.7 8.3-5.7 16.7-5.8 23.8-.1 8.3 2.6 14.1 7.5 16.3l12.4 5.5c4.8 2.1 6.9 7.7 4.8 12.5l-3.7 8.3c-2.1 4.8-7.7 6.9-12.5 4.8l-12.5-5.5c-11.9-5.6-14.6-34.8.9-69.8z"></path>
    </g>
</svg>