<svg xmlns="http://www.w3.org/2000/svg" viewBox="-1.960784463321474 -1.9607920927160052 203.921584185432 203.921584185432" preserveAspectRatio="xMidYMid meet" style="stroke-width: 1px;" fill="white">
    <g>
        <path d="M85.3 15.5h-71C6.4 15.5 0 21.8 0 29.7v142.1c0 7.8 6.4 14.2 14.2 14.2h71c7.8 0 14.2-6.4 14.2-14.2V29.7c.1-7.9-6.3-14.2-14.1-14.2zM7.1 51h85.3v99.5H7.1V51zm0-21.3c0-3.9 3.2-7.1 7.1-7.1h71c3.9 0 7.1 3.2 7.1 7.1v14.2H7.1V29.7zm85.3 142.1c0 3.9-3.2 7.1-7.1 7.1h-71c-3.9 0-7.1-3.2-7.1-7.1v-14.2h85.3v14.2zM53.3 29.3c.7.7 1.1 1.6 1.1 2.5 0 .2 0 .5-.1.7 0 .2-.1.5-.2.7l-.3.6c-.1.2-.3.4-.5.5-.3.4-.7.6-1.1.8-.4.2-.9.3-1.3.3-.2 0-.5 0-.7-.1-.2-.1-.4-.1-.6-.2l-.6-.3c-.2-.1-.4-.3-.5-.5-.7-.6-1-1.6-1-2.5 0-1 .4-1.9 1-2.5.2-.2.4-.3.5-.4.2-.1.4-.2.6-.4.2-.1.4-.1.6-.2.7-.1 1.4-.1 2.1.2.3.2.7.5 1 .8zM39.1 168.2c0-2 1.6-3.6 3.6-3.6h14.2c2 0 3.6 1.6 3.6 3.6s-1.6 3.6-3.6 3.6H42.6c-1.9 0-3.5-1.6-3.5-3.6zM153.8 14c-25.5 0-46.2 17.5-46.2 39.1 0 9.4 3.9 18.4 11.2 25.4-4.1 9.6-9.9 17-17 22-1.3.9-1.8 2.5-1.4 4 .5 1.5 1.8 2.5 3.4 2.5 22 0 34-8.2 40.4-15.7 3.2.6 6.4.9 9.6.9 25.5 0 46.2-17.5 46.2-39.1 0-21.5-20.7-39.1-46.2-39.1zm0 71.1c-3.4 0-6.8-.4-10.3-1.2-1.4-.3-2.8.2-3.6 1.3-5.6 7.5-14.5 12.2-25.9 13.9 5-5.5 9.2-12.2 12.3-20.3.5-1.4.2-3-1-4-6.8-6-10.6-13.7-10.6-21.8 0-17.6 17.5-32 39.1-32 21.5 0 39.1 14.3 39.1 32s-17.5 32.1-39.1 32.1z"></path>
    </g>
</svg>