<svg xmlns="http://www.w3.org/2000/svg" viewBox="0 0 295.239 295.239"><path d="M188.183 219.76l-36.988-34.774c-4.415-4.15-10.823-3.482-14.287 1.49l-7.544 10.835c-2.364 3.394-2.75 7.929-1.354 11.787l-2.847 4.088-.002.003c-2.021 2.906-16.767.309-36.168-17.931-19.398-18.237-24.662-34.45-22.641-37.358l2.85-4.091a8.92 8.92 0 0 0 2.85.167c2.588-.27 5.056-1.68 6.787-4.167l7.544-10.833c3.463-4.973 2.689-12.395-1.726-16.547L47.669 87.654c-2.138-2.01-4.802-2.962-7.5-2.68-2.7.281-5.108 1.763-6.786 4.171L25.838 99.98c-2.363 3.394-2.75 7.93-1.354 11.787 0 0-2.41 3.496-2.525 3.713-7.903 12.704-7.685 31.385.676 52.875 8.187 21.042 23.357 42.654 42.716 60.854 19.36 18.2 40.715 30.93 60.134 35.842 7.8 1.973 14.97 2.605 21.353 1.94 10.464-1.093 18.805-5.678 24.304-13.574l1.583-2.273c.932.206 1.89.27 2.854.17 2.7-.282 5.109-1.765 6.786-4.173l7.544-10.834c3.463-4.973 2.689-12.396-1.726-16.547zM41.389 96.673l36.988 34.775-7.538 10.839-.006-.005-.138-.13-18.356-17.258-18.494-17.387 7.544-10.834zm121.746 149.216l-.001.003c-6.39 9.174-19.09 11.904-35.761 7.686-17.846-4.514-37.642-16.372-55.74-33.388-18.1-17.017-32.212-37.037-39.736-56.375-7.03-18.065-7.381-33.068-.992-42.244v-.001l.802-1.15 28.705 26.986-2.065 2.966-.005.007c-8.554 12.3 5.784 36.423 24.371 53.898 13.912 13.08 30.462 22.677 41.5 21.525 3.712-.388 6.8-1.99 8.955-5.086l.003-.003 2.062-2.962 28.705 26.987-.803 1.151zm11.224-6.275l-36.988-34.775 7.544-10.834 36.988 34.774s-7.54 10.838-7.544 10.835z" fill="#fff"/><rect width="173.904" height="98.205" x="109.451" y="31.275" ry="20" opacity=".99" fill="#fab31a" stroke-width="5" stroke-linecap="round" stroke-linejoin="round"/><path d="M180.911 101.204l-3.893 65.806 78.189-75.06z" fill="#fab31a" fill-rule="evenodd"/><path opacity=".99" fill="#fff" stroke-width="5" stroke-linecap="round" stroke-linejoin="round" d="M165.759 50.666h92.575v8.132h-92.575zM141.99 69.431h116.97v8.132H141.99zm58.798 18.765h57.547v8.132h-57.547z"/></svg>