<svg xmlns="http://www.w3.org/2000/svg" viewBox="-2.215689612369914 -2.465686751346965 204.4313725490196 204.4313725490196" preserveAspectRatio="xMidYMid meet" style="stroke-width: 1px;" fill="white">
    <g>
        <path d="M71.7.8L53.7 15v-4.6c0-2.4-2-4.4-4.4-4.4H5.2C2.8 6 .8 8 .8 10.4v44.1c0 2.4 2 4.4 4.4 4.4h44.1c2.4 0 4.4-2 4.4-4.4v-30L76.4 6.7c1.6-1.3 1.9-3.6.6-5.3-1.3-1.6-3.6-1.9-5.3-.6zM44.9 50.1H9.6V14.8h35.3v7.1L30.5 33.2l-6.4-13.1c-.9-1.9-3.2-2.6-5-1.7-1.9.9-2.6 3.2-1.7 5l8.4 17.3c.5 1 1.4 1.8 2.5 2 .3.1.6.1.8.1.8 0 1.7-.3 2.3-.8l13.4-10.5v18.6z"></path>
        <path d="M71.7 71.4l-18 14.2V81c0-2.4-2-4.4-4.4-4.4H5.2c-2.4 0-4.4 2-4.4 4.4v44c0 2.4 2 4.4 4.4 4.4h44.1c2.4 0 4.4-2 4.4-4.4V95l22.7-17.8c1.6-1.2 1.9-3.6.6-5.2-1.3-1.6-3.6-1.9-5.3-.6zm-26.8 49.2H9.6V85.4h35.3v7.1l-14.3 11.3-6.4-13.1c-.9-1.9-3.2-2.6-5-1.7-1.9.9-2.6 3.2-1.7 5l8.4 17.3c.5 1 1.4 1.8 2.5 2 .3.1.6.1.8.1.8 0 1.7-.3 2.3-.8L44.9 102v18.6z"></path>
        <path d="M49.3 147.1H5.2c-2.4 0-4.4 2-4.4 4.4v44.1c0 2.4 2 4.4 4.4 4.4h44.1c2.4 0 4.4-2 4.4-4.4v-44.1c0-2.4-2-4.4-4.4-4.4zm-4.4 44.1H9.6v-35.3h35.3v35.3z"></path>
        <path d="M194.8 155.9h-97c-2.4 0-4.4 2-4.4 4.4 0 2.4 2 4.4 4.4 4.4h97c2.4 0 4.4-2 4.4-4.4 0-2.4-2-4.4-4.4-4.4z"></path>
        <path d="M194.8 182.4h-97c-2.4 0-4.4 2-4.4 4.4 0 2.4 2 4.4 4.4 4.4h97c2.4 0 4.4-2 4.4-4.4 0-2.5-2-4.4-4.4-4.4z"></path>
        <path d="M194.8 85.4h-97c-2.4 0-4.4 2-4.4 4.4s2 4.4 4.4 4.4h97c2.4 0 4.4-2 4.4-4.4s-2-4.4-4.4-4.4z"></path>
        <path d="M194.8 111.8h-97c-2.4 0-4.4 2-4.4 4.4s2 4.4 4.4 4.4h97c2.4 0 4.4-2 4.4-4.4s-2-4.4-4.4-4.4z"></path>
        <path d="M97.8 23.6h97c2.4 0 4.4-2 4.4-4.4s-2-4.4-4.4-4.4h-97c-2.4 0-4.4 2-4.4 4.4s2 4.4 4.4 4.4z"></path>
        <path d="M194.8 41.3h-97c-2.4 0-4.4 2-4.4 4.4s2 4.4 4.4 4.4h97c2.4 0 4.4-2 4.4-4.4s-2-4.4-4.4-4.4z"></path>
    </g>
</svg>