<?xml version="1.0" encoding="UTF-8" standalone="no"?>
<!-- Generator: Adobe Illustrator 19.0.0, SVG Export Plug-In . SVG Version: 6.00 Build 0)  -->

<svg
   xmlns:dc="http://purl.org/dc/elements/1.1/"
   xmlns:cc="http://creativecommons.org/ns#"
   xmlns:rdf="http://www.w3.org/1999/02/22-rdf-syntax-ns#"
   xmlns:svg="http://www.w3.org/2000/svg"
   xmlns="http://www.w3.org/2000/svg"
   xmlns:sodipodi="http://sodipodi.sourceforge.net/DTD/sodipodi-0.dtd"
   xmlns:inkscape="http://www.inkscape.org/namespaces/inkscape"
   version="1.1"
   id="Layer_1"
   x="0px"
   y="0px"
   viewBox="0 0 290.627 290.627"
   style="enable-background:new 0 0 290.627 290.627;"
   xml:space="preserve"
   inkscape:version="0.91 r13725"
   sodipodi:docname="smartphone.svg"><metadata
     id="metadata67"><rdf:RDF><cc:Work
         rdf:about=""><dc:format>image/svg+xml</dc:format><dc:type
           rdf:resource="http://purl.org/dc/dcmitype/StillImage" /></cc:Work></rdf:RDF></metadata><defs
     id="defs65" /><sodipodi:namedview
     pagecolor="#ffffff"
     bordercolor="#666666"
     borderopacity="1"
     objecttolerance="10"
     gridtolerance="10"
     guidetolerance="10"
     inkscape:pageopacity="0"
     inkscape:pageshadow="2"
     inkscape:window-width="1920"
     inkscape:window-height="1017"
     id="namedview63"
     showgrid="false"
     inkscape:zoom="0.81203738"
     inkscape:cx="145.31351"
     inkscape:cy="145.31351"
     inkscape:window-x="-8"
     inkscape:window-y="-8"
     inkscape:window-maximized="1"
     inkscape:current-layer="Layer_1" /><path
     style="fill:#fab31a;fill-opacity:1"
     d="m 112.501,192.188 c -25.889,0 -46.875,-20.986 -46.875,-46.875 0,-25.889 20.986,-46.875 46.875,-46.875 3.211,0 6.347,0.328 9.375,0.942 l 0,-66.567 -32.812,0 0,26.63 C 81.85,61.412 74.912,64.29 68.369,68.035 L 49.52,49.191 16.379,82.331 35.223,101.179 c -3.745,6.544 -6.623,13.481 -8.592,20.695 l -26.63,0 0,46.875 26.63,0 c 1.969,7.214 4.847,14.152 8.592,20.691 l -18.844,18.848 33.141,33.145 18.848,-18.844 c 6.544,3.745 13.481,6.623 20.695,8.592 l 0,26.63 32.812,0 0,-66.567 c -3.027,0.615 -6.163,0.944 -9.374,0.944 z"
     id="path7"
     inkscape:connector-curvature="0" /><path
     style="fill:#ffffff;fill-opacity:1"
     d="m 267.189,0 -131.25,0 c -12.923,0 -23.437,10.514 -23.437,23.438 l 0,70.312 c -28.43,0 -51.562,23.133 -51.562,51.563 0,28.43 23.133,51.563 51.562,51.563 l 0,70.313 c 0,12.923 10.514,23.438 23.437,23.438 l 131.25,0 c 12.923,0 23.437,-10.514 23.437,-23.438 l 0,-243.751 C 290.626,10.514 280.112,0 267.189,0 Z m -131.25,9.375 131.25,0 c 7.753,0 14.062,6.309 14.062,14.063 l 0,14.062 -159.375,0 0,-14.062 c 0,-7.754 6.31,-14.063 14.063,-14.063 z m 145.312,37.5 0,178.125 -159.375,0 0,-178.125 159.375,0 z M 70.314,145.313 c 0,-23.264 18.923,-42.188 42.187,-42.188 l 0,84.375 c -23.264,0 -42.187,-18.923 -42.187,-42.187 z m 196.875,135.937 -65.625,0 -65.625,0 c -7.753,0 -14.062,-6.309 -14.062,-14.063 l 0,-32.813 79.687,0 79.687,0 0,32.813 c 0,7.754 -6.308,14.063 -14.062,14.063 z"
     id="path9"
     inkscape:connector-curvature="0" /><rect
     x="178.12601"
     y="18.75"
     style="fill:#ffffff;fill-opacity:1"
     width="46.875"
     height="9.375"
     id="rect11" /><path
     style="fill:#ffffff;fill-opacity:1"
     d="m 225.001,257.813 c 0,-12.923 -10.514,-23.438 -23.437,-23.438 -12.923,0 -23.437,10.514 -23.437,23.438 0,12.924 10.514,23.438 23.437,23.438 12.923,0 23.437,-10.515 23.437,-23.438 z m -23.438,14.062 c -7.753,0 -14.063,-6.309 -14.063,-14.063 0,-7.753 6.309,-14.063 14.063,-14.063 7.753,0 14.062,6.309 14.062,14.063 0.001,7.754 -6.308,14.063 -14.062,14.063 z"
     id="path13"
     inkscape:connector-curvature="0" /><path
     style="fill:#ffffff;fill-opacity:1"
     d="m 131.79,138.122 c 0.755,1.439 19.153,35.316 69.773,35.316 50.62,0 69.019,-33.877 69.773,-35.316 l 1.148,-2.184 -1.148,-2.184 c -0.755,-1.439 -19.153,-35.316 -69.773,-35.316 -50.62,0 -69.019,33.877 -69.773,35.316 l -1.148,2.184 1.148,2.184 z m 41.648,-2.184 c 0,-15.511 12.614,-28.125 28.125,-28.125 15.511,0 28.125,12.614 28.125,28.125 0,15.511 -12.614,28.125 -28.125,28.125 -15.511,0 -28.125,-12.615 -28.125,-28.125 z m 88.257,0 c -3.258,4.866 -12.595,16.491 -30.703,23.17 5.039,-6.384 8.072,-14.423 8.072,-23.17 0,-8.747 -3.033,-16.786 -8.072,-23.17 18.108,6.679 27.446,18.304 30.703,23.17 z m -89.56,-23.171 c -5.039,6.384 -8.072,14.423 -8.072,23.17 0,8.747 3.033,16.786 8.072,23.17 -18.122,-6.684 -27.455,-18.319 -30.703,-23.17 3.254,-4.86 12.591,-16.49 30.703,-23.17 z"
     id="path15"
     inkscape:connector-curvature="0" /><rect
     x="135.939"
     y="65.625"
     style="fill:#ffffff;fill-opacity:1"
     width="18.75"
     height="9.375"
     id="rect17" /><rect
     x="173.438"
     y="65.625"
     style="fill:#ffffff;fill-opacity:1"
     width="18.75"
     height="9.375"
     id="rect19" /><rect
     x="210.938"
     y="65.625"
     style="fill:#ffffff;fill-opacity:1"
     width="18.75"
     height="9.375"
     id="rect21" /><rect
     x="248.438"
     y="65.625"
     style="fill:#ffffff;fill-opacity:1"
     width="18.75"
     height="9.375"
     id="rect23" /><rect
     x="135.939"
     y="196.875"
     style="fill:#ffffff;fill-opacity:1"
     width="18.75"
     height="9.375"
     id="rect25" /><rect
     x="173.438"
     y="196.875"
     style="fill:#ffffff;fill-opacity:1"
     width="18.75"
     height="9.375"
     id="rect27" /><rect
     x="210.938"
     y="196.875"
     style="fill:#ffffff;fill-opacity:1"
     width="18.75"
     height="9.375"
     id="rect29" /><rect
     x="248.438"
     y="196.875"
     style="fill:#ffffff;fill-opacity:1"
     width="18.75"
     height="9.375"
     id="rect31" /><g
     id="g33" /><g
     id="g35" /><g
     id="g37" /><g
     id="g39" /><g
     id="g41" /><g
     id="g43" /><g
     id="g45" /><g
     id="g47" /><g
     id="g49" /><g
     id="g51" /><g
     id="g53" /><g
     id="g55" /><g
     id="g57" /><g
     id="g59" /><g
     id="g61" /></svg>