<svg xmlns="http://www.w3.org/2000/svg" viewBox="0 0 290.627 290.627"><path d="M112.501 192.188c-25.889 0-46.875-20.986-46.875-46.875s20.986-46.875 46.875-46.875c3.211 0 6.347.328 9.375.942V32.813H89.064v26.63a88.558 88.558 0 0 0-20.695 8.592L49.52 49.191l-33.141 33.14 18.844 18.848a88.576 88.576 0 0 0-8.592 20.695H.001v46.875h26.63a88.458 88.458 0 0 0 8.592 20.691l-18.844 18.848 33.141 33.145 18.848-18.844a88.576 88.576 0 0 0 20.695 8.592v26.63h32.812v-66.567a47.053 47.053 0 0 1-9.374.944z" fill="#fab31a"/><path d="M267.189 0h-131.25c-12.923 0-23.437 10.514-23.437 23.438V93.75c-28.43 0-51.562 23.133-51.562 51.563 0 28.43 23.133 51.563 51.562 51.563v70.313c0 12.923 10.514 23.438 23.437 23.438h131.25c12.923 0 23.437-10.514 23.437-23.438V23.438C290.626 10.514 280.112 0 267.189 0zm-131.25 9.375h131.25c7.753 0 14.062 6.309 14.062 14.063V37.5H121.876V23.438c0-7.754 6.31-14.063 14.063-14.063zm145.312 37.5V225H121.876V46.875h159.375zM70.314 145.313c0-23.264 18.923-42.188 42.187-42.188V187.5c-23.264 0-42.187-18.923-42.187-42.187zM267.189 281.25h-131.25c-7.753 0-14.062-6.309-14.062-14.063v-32.813h159.374v32.813c0 7.754-6.308 14.063-14.062 14.063z" fill="#fff"/><path fill="#fff" d="M178.126 18.75h46.875v9.375h-46.875zm46.875 239.063c0-12.923-10.514-23.438-23.437-23.438-12.923 0-23.437 10.514-23.437 23.438s10.514 23.438 23.437 23.438c12.923 0 23.437-10.515 23.437-23.438zm-23.438 14.062c-7.753 0-14.063-6.309-14.063-14.063 0-7.753 6.309-14.063 14.063-14.063 7.753 0 14.062 6.309 14.062 14.063.001 7.754-6.308 14.063-14.062 14.063zM131.79 138.122c.755 1.439 19.153 35.316 69.773 35.316s69.019-33.877 69.773-35.316l1.148-2.184-1.148-2.184c-.755-1.439-19.153-35.316-69.773-35.316s-69.019 33.877-69.773 35.316l-1.148 2.184 1.148 2.184zm41.648-2.184c0-15.511 12.614-28.125 28.125-28.125s28.125 12.614 28.125 28.125-12.614 28.125-28.125 28.125-28.125-12.615-28.125-28.125zm88.257 0c-3.258 4.866-12.595 16.491-30.703 23.17 5.039-6.384 8.072-14.423 8.072-23.17 0-8.747-3.033-16.786-8.072-23.17 18.108 6.679 27.446 18.304 30.703 23.17zm-89.56-23.171c-5.039 6.384-8.072 14.423-8.072 23.17 0 8.747 3.033 16.786 8.072 23.17-18.122-6.684-27.455-18.319-30.703-23.17 3.254-4.86 12.591-16.49 30.703-23.17zm-36.196-47.142h18.75V75h-18.75zm37.499 0h18.75V75h-18.75zm37.5 0h18.75V75h-18.75zm37.5 0h18.75V75h-18.75zm-112.499 131.25h18.75v9.375h-18.75zm37.499 0h18.75v9.375h-18.75zm37.5 0h18.75v9.375h-18.75zm37.5 0h18.75v9.375h-18.75z"/></svg>